<?xml version="1.0" encoding="UTF-8" standalone="no"?>
<!-- Created with Inkscape (http://www.inkscape.org/) -->

<svg
   width="210mm"
   height="297mm"
   viewBox="0 0 210 297"
   version="1.1"
   id="svg5"
   inkscape:version="1.1.1 (3bf5ae0d25, 2021-09-20)"
   sodipodi:docname="LOGO_ProVita.svg"
   xmlns:inkscape="http://www.inkscape.org/namespaces/inkscape"
   xmlns:sodipodi="http://sodipodi.sourceforge.net/DTD/sodipodi-0.dtd"
   xmlns="http://www.w3.org/2000/svg"
   xmlns:svg="http://www.w3.org/2000/svg">
  <sodipodi:namedview
     id="namedview7"
     pagecolor="#ffffff"
     bordercolor="#666666"
     borderopacity="1.0"
     inkscape:pageshadow="2"
     inkscape:pageopacity="0.0"
     inkscape:pagecheckerboard="0"
     inkscape:document-units="mm"
     showgrid="false"
     inkscape:snap-bbox="false"
     inkscape:object-paths="false"
     inkscape:zoom="0.90509668"
     inkscape:cx="339.19028"
     inkscape:cy="804.88639"
     inkscape:window-width="1920"
     inkscape:window-height="1017"
     inkscape:window-x="-8"
     inkscape:window-y="-8"
     inkscape:window-maximized="1"
     inkscape:current-layer="layer1" />
  <defs
     id="defs2">
    <rect
       x="161.90188"
       y="323.80376"
       width="437.13507"
       height="180.79043"
       id="rect4257" />
  </defs>
  <g
     inkscape:label="Layer 1"
     inkscape:groupmode="layer"
     id="layer1">
    <g
       aria-label="ProVita"
       transform="matrix(1.7027434,0,0,1.6716819,-277.87053,-443.75283)"
       id="text4255"
       style="font-size:40px;line-height:1.25;white-space:pre;shape-inside:url(#rect4257);fill:#008080">
      <path
         d="m 172.46875,335.94243 0.15625,-0.19531 q 0.13672,-0.19531 0.39062,-0.21484 0.25391,-0.0391 0.48829,-0.15625 l 2.87109,-0.80079 q 0.41016,-0.0976 1.01562,-0.15625 l 0.625,-0.19531 q 0.25391,-0.11719 0.72266,-0.11719 l 0.64453,-0.13671 q 0.0781,0 0.13672,0.15625 0.0586,0.13671 0.0977,0.13671 0.91797,-0.60546 1.17187,-0.60546 h 0.0391 l 0.46875,0.11718 q 0.11719,0 0.25391,-0.15625 l 0.0781,-0.0781 q 0.42968,0.19531 0.46875,0.19531 0.29296,0 0.66406,-0.11719 0.37109,-0.11718 0.70312,-0.11718 l 0.60547,0.0391 1.34766,-0.0781 q 0.11719,0 0.2539,0.11719 l 0.39063,-0.0781 q 0.56641,0 1.11328,0.15625 0.56641,0.15625 1.34766,0.23437 0.78125,0.0781 1.13281,0.52734 l 0.33203,0.11719 h 0.23438 q 0.50781,0 0.60546,0.41016 0.11719,0.23437 0.46875,0.46875 l 0.25391,0.41015 q -0.0391,0.11719 -0.0391,0.23438 0,0.11719 0.42969,0.27344 l 0.0781,0.0391 q 0.0195,0.29297 0.37109,0.68359 0.35157,0.3711 0.35157,1.40625 v 0.46875 l 0.0781,1.01563 q 0,1.03515 -0.625,2.5 -0.60547,1.46484 -1.28906,2.05078 -0.15625,0.52734 -0.37109,0.52734 -0.6836,0.625 -0.87891,0.625 -0.0391,0 -0.11719,-0.0391 -0.2539,0.46875 -0.85937,0.82031 -0.58594,0.35157 -0.76172,0.41016 -0.17578,0.0586 -0.89844,0.33203 l -0.46875,-0.11719 q -0.29297,0.27344 -0.41016,0.29297 l -1.03515,0.42969 q -1.3086,0.35156 -1.71875,0.35156 l -0.48828,-0.15625 q -0.11719,0 -0.35157,0.29297 l -0.37109,0.0781 q -0.11719,-0.11719 -0.76172,-0.17579 -0.27344,0.17579 -0.44922,0.17579 l -0.85937,0.11718 q -0.15625,0 -0.19531,-0.29297 l -0.17579,0.0586 -0.0781,0.27344 q -0.0781,0.0391 -0.19531,0.0391 l -1.03516,-0.11719 -0.48828,0.11719 -0.80078,-0.15625 -0.39063,0.0391 -0.33203,-0.15625 -0.3125,0.0391 -0.3125,-0.0781 -0.37109,0.0781 -0.0781,-0.0391 q -0.0781,0.15625 -0.19531,0.25391 -0.11719,0.0976 -0.3125,0.41015 -0.44922,0.3711 -0.56641,0.89844 -0.11718,0.52734 -0.68359,0.58594 -0.0391,0.0781 -0.11719,0.19531 0.0391,0.0391 0.11719,0.33203 v 0.0781 q 0,0.46875 -0.76172,0.95703 -0.11719,0.70312 -0.29297,1.01562 -0.15625,0.3125 -0.21484,0.52735 -0.0586,0.19531 -0.33203,0.33203 l -0.0781,0.11719 v 0.5664 q 0,0.0391 -0.11718,0.25391 -0.11719,0.19531 -0.33204,0.58594 l -0.11718,0.19531 -0.15625,0.64453 q -0.39063,0.27344 -0.39063,0.76172 l 0.0391,1.11328 q 0,0.29297 -0.39062,0.60547 -0.37109,0.3125 -0.74219,0.3125 -0.95703,0 -1.30859,-1.15235 l -0.11719,-0.15625 q -0.41016,-0.33203 -0.41016,-0.99609 0,-0.76172 0.80079,-2.28516 l 1.28906,-2.32421 q 0.0195,-0.0391 0.50781,-0.35157 l 0.21484,0.0781 q 0.0781,-0.0391 0.0781,-0.15625 0,-0.0391 -0.21484,-0.56641 v -0.0781 q 0,-0.15625 0.13671,-0.19532 l 0.15625,-0.17578 -0.0391,-0.39062 q 0.35156,-0.52735 0.3711,-0.6836 l 0.19531,-0.44921 q 0.19531,-0.44922 0.3125,-0.46875 0,-0.78125 0.46875,-1.15235 l 0.15625,-0.33203 q 0.0586,-0.11719 0.2539,-0.13672 0.19532,-0.0195 0.19532,-0.0586 0,-0.0781 -0.0586,-0.19531 -0.0586,-0.11719 -0.0586,-0.19532 0,-0.19531 0.21484,-0.50781 0.23438,-0.3125 0.33203,-0.3125 l 0.29297,0.17578 v -0.11719 q -0.19531,-0.17578 -0.19531,-0.29296 0,-0.15625 0.17578,-0.41016 0.17578,-0.27344 0.21485,-0.39063 l 0.15625,-0.19531 q 0.0391,0 0.19531,-0.54687 0.15625,-0.54688 0.44922,-0.52735 v -0.19531 q 0,-0.19531 0.44922,-0.9375 l 1.03515,-1.83594 q 0.0391,-0.19531 0.3125,-0.68359 l -0.0391,-0.46875 q 0,-0.3125 0.35156,-0.97656 0.3711,-0.66407 0.60547,-0.66407 0.11719,0 0.15625,0.0391 0.0586,0.0391 0.0977,0.0391 l 0.3125,-0.0391 0.625,0.5664 q 0.2539,0.21485 0.29297,0.76172 l 0.0781,0.11719 q 0.48828,0.89844 0.48828,1.26953 0,0.46875 -0.0977,0.72266 -0.0781,0.23437 -0.58594,0.5664 -0.48828,0.56641 -0.60547,0.9961 -0.11719,0.41015 -0.41016,0.78125 -0.27343,0.37109 -0.48828,1.09375 -0.21484,0.72265 -0.74219,1.07422 -0.0586,0.52734 -0.15625,0.89843 v 0.0391 q 0,0.11718 0.15625,0.11718 l 0.64454,-0.0781 q 0.11718,0 0.27343,0.0586 0.17578,0.0586 0.33203,0.0586 0.15625,0 0.39063,-0.15625 h 0.11719 q 0.0781,0 0.48828,0.19531 l 0.0781,-0.0391 q 0.11719,-0.19532 0.23438,-0.19532 l 0.76172,0.0781 0.37109,-0.0391 q 0.27344,-0.17579 0.83984,-0.19532 0.58594,-0.0195 0.80079,-0.11718 0.23437,-0.0977 0.41015,-0.11719 0.17578,-0.0195 0.44922,-0.15625 0.29297,-0.13672 0.48828,-0.13672 0.44922,0 1.25,-0.41016 0.27344,0.0781 0.3125,0.0781 0.3711,0 0.60547,-0.3125 0.23438,-0.3125 0.52734,-0.35156 l 1.19141,-0.52735 q 0.15625,-0.0586 0.68359,-0.64453 l 0.35157,-0.23437 0.23437,-0.33204 q 0,-0.0391 0.3711,-0.23437 -0.0781,-0.0391 -0.11719,-0.11719 l 0.42969,-0.48828 q -0.0391,-0.19531 -0.0391,-0.23437 v -0.0781 q 0.19532,-0.29297 0.39063,-0.42969 0.21484,-0.13672 0.21484,-0.17578 l -0.19531,-0.23437 q 0.27344,-0.27344 0.27344,-0.35157 l -0.0781,-0.5664 0.0781,-0.9961 q 0,-0.76171 -0.0977,-0.97656 -0.0977,-0.23437 -0.13672,-0.46875 -0.37109,-0.72265 -1.03515,-1.1914 -0.0586,-0.0391 -0.0586,-0.13672 l -0.0391,-0.19532 v -0.0781 l -0.625,0.0781 q -0.0391,0 -0.13672,-0.19531 -0.0781,-0.19531 -0.27344,-0.19531 l -0.27343,0.11719 h -0.0391 q -0.13672,0 -0.68359,-0.3711 -0.11719,-0.0391 -0.48828,-0.0391 l -0.27344,-0.11719 q -0.11719,-0.0781 -0.19531,-0.0781 h -0.11719 l -0.44922,0.0781 -0.99609,-0.0781 -0.60547,-0.11719 q -0.33203,0.23438 -0.42969,0.23438 -0.0781,0 -0.37109,-0.11719 h -0.0391 l -0.58594,0.0781 q -0.27344,0.0391 -0.44922,0.0781 h -0.11719 q -0.64453,0 -0.99609,-0.11719 h -0.11719 q -0.21484,0 -0.35156,0.15625 -0.13672,0.13672 -0.25391,0.13672 -0.0781,0 -0.19531,-0.25391 -0.25391,0.19532 -0.37109,0.25391 l -0.35157,-0.13672 q -0.0781,0.15625 -1.1914,0.33203 l -0.9375,0.19531 -0.15625,-0.0391 q -0.44922,0.15625 -0.74219,0.21485 -0.29297,0.0586 -0.52734,0.17578 -0.21485,0.0976 -0.46875,0.13672 -0.25391,0.0391 -0.74219,0.19531 l -0.3125,-0.0781 q -0.3711,0.21485 -1.07422,0.50782 -0.70313,0.29296 -0.87891,0.46875 -0.17578,0.17578 -0.33203,0.17578 -0.0391,0 -0.23437,-0.0391 h -0.0391 q -0.17578,0 -0.58593,0.41016 -0.39063,0.39063 -0.6836,0.56641 -0.29297,0.17578 -0.52734,0.5664 -0.21484,0.3711 -1.01563,0.54688 -0.0391,0.0391 -0.0781,0.11719 v 0.3125 q -0.3125,0.17578 -0.56641,0.68359 l -0.11718,0.19531 -0.0391,0.3711 q 0,0.58593 -0.15625,0.625 -0.15625,0.0391 -0.33203,0.17578 -0.15625,0.11718 -0.3125,0.11718 -0.33203,0 -0.625,-0.58593 -0.29297,-0.58594 -0.29297,-0.70313 0,-1.15234 0.76172,-1.69922 l 1.44531,-1.05468 q 0.72266,-0.52735 1.23047,-0.52735 0.15625,-0.0781 0.33203,-0.37109 0.17579,-0.29297 0.80079,-0.42969 l 0.3125,0.11719 q 0.0391,0 0.11718,-0.15625 0.0781,-0.15625 0.23438,-0.25391 0.17578,-0.0976 0.29297,-0.2539 l 0.50781,-0.33204 q 0.0391,0 0.0781,-0.0391 l 0.29297,0.0781 q 0.0391,0 0.11719,-0.0391 0.0781,-0.0391 0.27344,-0.0391 0.0781,0 0.11719,-0.19531 0.0781,-0.0977 0.21484,-0.11719 z"
         style="font-family:'Rage Italic';-inkscape-font-specification:'Rage Italic, '"
         id="path77316" />
      <path
         d="m 190.22266,349.26274 0.29296,-0.0781 0.11719,-0.25391 q 0.95703,-0.5664 1.36719,-1.07422 0.0391,-0.0781 0.17578,-0.15625 0.13672,-0.0781 0.29297,-0.27343 0.72266,-0.72266 1.71875,-0.72266 1.17187,0 1.25,1.42578 l 0.11719,0.29297 q 0.15625,0.27344 0.42968,1.11328 0.29297,0.83985 0.29297,1.03516 0,0.52734 -0.33203,1.05469 -0.27344,0.13671 -1.30859,1.46484 l -0.19531,0.13672 q -0.15625,0.35156 -0.41016,0.70312 -0.39063,0.13672 -0.39063,0.29297 v 0.35156 q 0,0.0391 -0.0977,0.15625 -0.0781,0.11719 -0.23438,0.44922 l -0.15625,0.23438 q -0.0781,0.0781 -0.15625,0.33203 -0.0781,0.23437 -0.23437,0.42969 -0.13672,0.19531 -0.13672,0.3125 0,0.29297 0.76172,0.29297 0.0391,0 0.29297,-0.11719 l 0.27343,0.0781 q 0.0391,0 0.19532,-0.11718 0.15625,-0.13672 0.46875,-0.21485 0.33203,-0.0781 0.5664,-0.23437 0.25391,-0.15625 0.58594,-0.27344 0.35156,-0.11719 0.66406,-0.37109 0.3125,-0.27344 0.60547,-0.39063 0.3125,-0.11719 0.56641,-0.35156 0.27344,-0.25391 0.60547,-0.46875 0.33203,-0.21485 1.05468,-0.9375 0.46875,-0.3711 0.64454,-0.41016 0.0391,0 0.33203,-0.50781 0.3125,-0.52734 0.70312,-0.52734 0.41016,0 0.41016,0.39062 0,0.21484 -0.19531,0.41016 v 0.11718 l 0.0391,0.3125 q 0.0391,0.0586 0.0391,0.17579 0,0.0781 -0.15625,0.23437 -0.13672,0.15625 -0.19531,0.41016 -0.0586,0.23437 -0.3711,0.3125 -0.11718,0.42968 -0.3125,0.48828 -0.17578,0.0586 -0.50781,0.39062 -0.33203,0.33203 -0.9375,0.78125 -0.60547,0.44922 -0.83984,0.70313 -0.21485,0.23437 -0.29297,0.23437 -0.0391,0 -0.15625,-0.0781 -0.11719,-0.0781 -0.15625,-0.0781 -0.11719,0 -0.15625,0.27344 l -0.0781,0.19531 q -0.2539,0.15625 -0.29296,0.15625 l -0.11719,-0.0391 h -0.0781 q -0.23437,0 -0.23437,0.17578 l 0.11719,0.19531 v 0.0391 q 0,0.27343 -0.3125,0.27343 -0.21485,0 -1.25,0.72266 l -0.56641,0.11719 -0.46875,0.2539 q -0.23438,-0.13671 -0.29297,-0.13671 l -0.3125,0.0976 -0.56641,0.0391 q -0.0195,0 -0.72265,-0.39062 -0.6836,-0.39063 -0.82031,-0.78125 -0.13672,-0.39063 -0.35157,-0.78125 -0.21484,-0.41016 -0.21484,-0.56641 0,-0.9375 0.15625,-1.32812 0.15625,-0.41016 0.19531,-0.60547 0.0391,-0.19531 0.21485,-0.41016 0.19531,-0.23437 0.3125,-0.74218 0.5664,-1.13282 0.78125,-1.38672 0.21484,-0.25391 0.33203,-0.625 l 0.2539,-0.35157 q 0.0391,-0.0391 0.11719,-0.29296 0.0781,-0.27344 0.19531,-0.3125 0.15625,-0.27344 0.15625,-0.35157 0,-0.5664 -0.50781,-0.5664 -0.0977,0 -0.21484,0.21484 -0.11719,0.19531 -0.54688,0.39063 -0.41015,0.19531 -0.50781,0.29296 -0.0977,0.0977 -0.42969,0.25391 -0.3125,0.13672 -0.54687,0.44922 l -0.33203,0.15625 q -0.15625,0.37109 -0.27344,0.41016 -0.11719,0.0391 -0.72266,0.19531 -0.0391,0.0195 -0.19531,0.23437 -0.15625,0.21485 -0.44922,0.21485 -0.23437,0.23437 -0.46875,0.54687 -0.0781,0 -0.41016,0.15625 l -0.39062,0.0977 q -0.15625,0.11719 -0.35156,0.37109 -0.17578,0.25391 -0.6836,0.25391 -0.29297,0 -0.29297,-0.46875 0,-0.95703 0.66407,-1.52344 0.68359,-0.56641 0.99609,-0.60547 0.3125,-0.0391 0.39063,-0.23437 0.0781,-0.19532 0.37109,-0.3125 0.3125,-0.13672 0.70312,-0.56641 0.41016,-0.44922 0.87891,-0.60547 z"
         style="font-family:'Rage Italic';-inkscape-font-specification:'Rage Italic, '"
         id="path77318" />
      <path
         d="m 211.0625,356.70415 -0.91797,0.80078 q -0.0781,-0.0781 -0.15625,-0.0781 -0.19531,0 -0.48828,0.35156 -0.27344,0.35156 -0.39063,0.35156 l -0.19531,-0.0391 q -0.48828,0.37109 -0.70312,0.42969 -0.21485,0.0586 -0.52735,0.21484 -0.29297,0.15625 -0.54687,0.17578 -0.23438,0.0195 -0.39063,0.17578 -0.15625,0.13672 -0.76172,0.13672 l -0.3125,-0.0391 q -0.2539,0.11719 -0.33203,0.11719 -0.15625,0 -0.33203,-0.15625 -0.17578,-0.17578 -0.39062,-0.19532 -0.19532,-0.0195 -0.41016,-0.27343 -0.21484,-0.25391 -0.41016,-0.35157 -0.17578,-0.0976 -0.29296,-0.27343 l -0.27344,-0.23438 q -0.33203,-0.23437 -0.64453,-0.85937 -0.3125,-0.625 -0.3125,-0.97657 v -0.0781 l 0.0391,-0.37109 -0.0391,-0.42969 q 0.0781,-0.0781 0.19531,-0.33203 v -0.625 l 0.46875,-1.5625 q 0.0391,-0.0977 -0.15625,-0.25391 -0.19531,0.29297 -0.39063,0.35156 -0.19531,0.0586 -0.27343,0.27344 -0.0586,0.21484 -0.21485,0.21484 l -0.23437,-0.0781 q -0.0391,0.0391 -0.17578,0.41016 -0.13672,0.35156 -0.46875,0.35156 -0.35157,0 -0.35157,-0.27344 l 0.0391,-0.35156 -0.11719,-0.48828 q 0,-0.15625 0.3125,-0.60547 0.3125,-0.46875 0.56641,-0.52735 0.27343,-0.0781 0.44921,-0.37109 0.19532,-0.3125 0.82032,-0.74219 0.35156,-0.0781 0.60547,-0.50781 0.27343,-0.21484 0.70312,-0.35156 0.44922,-0.13672 0.66406,-0.39063 0.23438,-0.27343 1.32813,-0.82031 1.11328,-0.56641 1.62109,-0.56641 0.15625,0 0.42969,-0.0781 0.27344,-0.0977 0.50781,-0.15625 0.23438,-0.0781 0.48828,-0.21484 0.25391,-0.15625 0.41016,-0.15625 l 0.56641,0.19531 q 0.625,0.17578 0.76171,0.2539 0.0391,0.0391 0.39063,0.17579 0.37109,0.11718 0.74219,0.33203 0.39062,0.21484 0.39062,0.80078 -0.33203,0.48828 -0.33203,0.52734 0,0.0781 0.44922,0.23438 0.15625,0.29297 0.46875,0.76172 l 0.21484,0.68359 0.0391,1.60156 -0.0391,0.15625 q -0.21484,0.19531 -0.21484,0.25391 l 0.0586,0.39062 -0.15625,0.54688 q -0.0586,0.2539 -0.19531,0.33203 -0.13672,0.0781 -0.17578,0.19531 l -0.11719,0.15625 q -0.0391,0.0586 -0.17578,0.35156 -0.11719,0.27344 -0.27344,0.42969 -0.15625,0.15625 -0.19531,0.3711 -0.0391,0.21484 -0.19531,0.3125 -0.15625,0.0976 -0.23438,0.21484 -0.0586,0.0977 -0.21484,0.17578 z m -6.07422,0.50781 0.0781,0.44922 0.0391,0.0391 h 0.3125 l 0.0977,0.0391 q 0.39063,0.0781 0.58594,0.0781 0.60547,0 0.95703,-0.29297 0.3711,-0.3125 0.58594,-0.3125 0.21484,0 0.35156,-0.29297 0.15625,-0.29296 0.19532,-0.29296 h 0.27343 l 0.0781,-0.0391 q 0,-0.44922 0.39062,-0.64453 0.41016,-0.19531 0.56641,-0.50781 0.17578,-0.33203 0.39062,-0.48828 0.21485,-0.17578 0.29297,-0.44922 l 0.15625,-0.23438 q 0.0781,-0.0781 0.0781,-0.29296 l 0.37109,-0.70313 q 0.11719,-0.48828 0.11719,-0.76172 0,-0.41015 -0.42969,-0.64453 -0.41015,-0.23437 -0.41015,-0.91797 0,-0.44922 0.44921,-0.82031 0.46875,-0.39063 0.46875,-0.46875 0,-0.11719 -0.11718,-0.11719 -0.0586,0 -0.44922,0.15625 -0.13672,0.27344 -1.38672,0.72266 -0.41016,-0.19531 -0.44922,-0.19531 -0.11719,0 -0.23437,0.23437 -0.11719,0.23438 -0.23438,0.33203 h -0.25391 q -0.0391,0 -0.2539,0.25391 -0.21485,0.2539 -0.54688,0.2539 l -0.23437,0.23438 q 0.0195,0.3125 -0.39063,0.64453 l -0.21484,0.25391 q -0.19531,0.23437 -0.50781,0.54687 l -0.35157,0.87891 q -0.21484,0.50781 -0.21484,0.76172 -0.0586,0.11718 -0.27344,0.2539 -0.19531,0.11719 -0.19531,0.3125 0,0.0391 0.13672,0.19532 0.13672,0.15625 0.13672,0.23437 l -0.0781,0.25391 -0.0781,0.72265 z"
         style="font-family:'Rage Italic';-inkscape-font-specification:'Rage Italic, '"
         id="path77320" />
      <path
         d="m 222.50781,342.50493 0.50781,-0.44922 c 0.37761,-0.3125 0.61849,-0.46875 0.72266,-0.46875 0.0521,-0.14323 0.27993,-0.38411 0.68359,-0.72265 0.15625,-0.0261 0.3125,-0.14977 0.46875,-0.3711 0.16927,-0.23437 0.34506,-0.37109 0.52735,-0.41015 0.18229,-0.0391 0.38412,-0.1823 0.60547,-0.42969 0.22135,-0.24739 0.52734,-0.44271 0.91797,-0.58594 l 0.19531,-0.17578 c 0.29948,-0.23437 0.51432,-0.35156 0.64453,-0.35156 l 4.27734,-1.83594 c 0.11719,-0.0521 0.38411,0.0456 0.80078,0.29297 0.42969,0.23437 0.64454,0.61198 0.64454,1.13281 0,0.80729 -0.17578,1.27604 -0.52735,1.40625 0.0261,0.0521 0.0391,0.11717 0.0391,0.19531 0,0.15625 -0.19531,0.55339 -0.58593,1.19141 -0.39063,0.625 -0.63802,1.0026 -0.74219,1.13281 -0.10417,0.13021 -0.18229,0.306 -0.23438,0.52735 l -0.19531,0.35156 c 0,0.13021 -0.0781,0.3125 -0.23437,0.54687 l -0.41016,0.70313 c -0.36458,0.49479 -0.57291,0.93099 -0.625,1.30859 0,0.0261 -0.0846,0.13674 -0.25391,0.33203 l -0.3125,0.50782 c -0.10417,0.55989 -0.2539,0.89192 -0.44921,0.99609 -0.18229,0.0911 -0.27344,0.17578 -0.27344,0.25391 0,0.29948 -0.0781,0.57943 -0.23438,0.83984 l -0.8789,2.38281 c -0.0781,0.19531 -0.22787,0.52084 -0.44922,0.97657 l -0.11719,0.50781 -0.39062,0.72265 v 0.56641 l -0.13672,0.23438 c -0.0521,0.0781 -0.10415,0.27343 -0.15625,0.58593 -0.0521,0.29948 -0.12368,0.54688 -0.21485,0.74219 -0.0911,0.18229 -0.13672,0.32552 -0.13672,0.42969 v 0.2539 l 0.0391,0.3125 c 0,0.0521 -0.026,0.14321 -0.0781,0.27344 0.0261,0.14323 0.0391,0.30599 0.0391,0.48828 0,0.0781 0.026,0.15625 0.0781,0.23438 l 0.0781,-0.11719 c 0.13021,-0.0261 0.26042,-0.11721 0.39063,-0.27344 0.14323,-0.16927 0.27343,-0.28645 0.39062,-0.35156 0.11719,-0.0651 0.21485,-0.21487 0.29297,-0.44922 0.0781,-0.24739 0.20183,-0.39713 0.3711,-0.44922 0.48177,-0.48177 0.74869,-0.80078 0.80078,-0.95703 l 1.11328,-1.83594 0.68359,-0.91796 c 0,-0.28646 0.22787,-0.60547 0.6836,-0.95704 0.20833,-0.32552 0.35156,-0.57291 0.42968,-0.74218 0.0781,-0.18229 0.15625,-0.27344 0.23438,-0.27344 0.14323,0 0.24088,0.0456 0.29297,0.13672 0.0521,0.0781 0.0911,0.11719 0.11719,0.11719 0.10417,0 0.15625,-0.0716 0.15625,-0.21485 0,-0.18229 -0.0781,-0.32552 -0.23438,-0.42969 -0.0261,0 -0.0391,-0.026 -0.0391,-0.0781 0,-0.32552 0.13672,-0.67057 0.41015,-1.03516 0.28646,-0.3776 0.48177,-0.6901 0.58594,-0.9375 0.10417,-0.26041 0.35807,-0.63802 0.76172,-1.13281 0.40365,-0.49479 0.65104,-0.85287 0.74219,-1.07422 0.0911,-0.23437 0.21484,-0.35156 0.37109,-0.35156 h 0.0781 c 0.24739,-0.23437 0.46224,-0.35156 0.64453,-0.35156 0.0521,0 0.0911,0.0781 0.11719,0.23437 0.16927,-0.10417 0.2539,-0.18229 0.2539,-0.23437 0,-0.13021 -0.0911,-0.21485 -0.27344,-0.25391 -0.16927,-0.0391 -0.2539,-0.11719 -0.2539,-0.23437 0,-0.0781 0.37387,-0.3299 0.76172,-1.01563 15.34392,-27.12852 5.35616,-9.06754 0.83984,-0.89844 -0.0256,0.0462 0.11717,0.0391 0.19531,0.11719 l 0.11719,-0.0781 v -0.3125 c 0,-0.0521 0.0977,-0.17577 0.29297,-0.3711 0,-0.20833 0.0846,-0.35156 0.25391,-0.42969 0.16927,-0.0781 0.2539,-0.1302 0.2539,-0.15625 l -0.0781,-0.29296 h 0.0391 c 0.16927,-0.10417 0.27995,-0.18229 0.33203,-0.23438 l 0.46875,0.0391 c 0.10417,0 0.18229,-0.0911 0.23438,-0.27343 -0.20833,-0.0651 -0.3125,-0.14977 -0.3125,-0.25391 0,-0.10417 0.0977,-0.23438 0.29296,-0.39063 0.20833,-0.15625 0.3125,-0.3125 0.3125,-0.46875 0,-0.14323 0.30599,-0.46875 0.91797,-0.97656 0.18229,-0.20833 0.35808,-0.42318 0.52735,-0.64453 0.18229,-0.23437 0.54036,-0.5013 1.07422,-0.80078 0.0391,-0.32552 0.11719,-0.50781 0.23437,-0.54688 l 0.48828,0.0391 0.23438,-0.15625 -0.0391,-0.41016 c 0.5599,-0.36458 0.92448,-0.58593 1.09375,-0.66406 0.16927,-0.0912 0.3125,-0.20182 0.42969,-0.33203 0.59896,-0.40365 1.00912,-0.60547 1.23047,-0.60547 l 0.41016,0.0781 c 0.22135,-0.0781 0.41015,-0.11718 0.5664,-0.11718 0.13021,0 0.23438,0.0195 0.3125,0.0586 0.0781,0.0391 0.21485,0.0846 0.41016,0.13672 0.19531,0.0391 0.36458,0.22787 0.50781,0.5664 0.15625,0.32553 0.23438,0.59246 0.23438,0.80079 l 0.0391,0.64453 c 0,0.36458 -0.16927,0.7552 -0.50781,1.17187 -0.32552,0.41667 -0.59245,0.625 -0.80078,0.625 l -0.25391,-0.0391 c -0.23437,0.10417 -0.49479,0.18229 -0.78125,0.23437 -0.27344,0.0521 -0.54688,0.18879 -0.82031,0.41016 l -0.11719,0.0781 h -0.23438 l -0.0391,0.0781 v 0.11719 c -0.0651,0.0521 -0.15628,0.14972 -0.27344,0.29297 -0.11719,0.14323 -0.30599,0.31901 -0.5664,0.52734 -0.2474,0.19531 -0.48829,0.42969 -0.72266,0.70313 -0.23437,0.26041 -0.51432,0.48177 -0.83984,0.66406 -0.32552,0.16927 -0.54036,0.40364 -0.64453,0.70312 l -0.0781,0.0781 h -0.19531 c -0.24739,0.28646 -0.46875,0.5599 -0.66406,0.82031 -0.19531,0.24739 -0.3711,0.42317 -0.52735,0.52734 -0.14323,0.10417 -0.22135,0.1888 -0.23437,0.25391 -0.013,0.0521 -0.11066,0.16925 -0.29297,0.35156 l -0.19531,0.39063 c -0.19531,0.0911 -0.42318,0.3125 -0.6836,0.66406 -0.24739,0.33854 -0.39713,0.53385 -0.44922,0.58594 l -0.15625,0.19531 -0.3125,0.19531 c -0.22135,0.22135 -0.37109,0.38411 -0.44921,0.48828 0,0.2474 -0.13021,0.41016 -0.39063,0.48829 -0.13021,0.11719 -0.23437,0.34505 -0.3125,0.68359 -0.0781,0.33854 -0.16276,0.50781 -0.25391,0.50781 l -0.35156,-0.0391 c -0.0391,0.0261 -0.11068,0.13023 -0.21484,0.3125 l -0.11719,0.17578 c -0.0781,0.0781 -0.15625,0.21485 -0.23437,0.41016 -0.0651,0.19531 -0.21487,0.33854 -0.44922,0.42968 -0.15625,0.39063 -0.2474,0.58594 -0.27344,0.58594 l -0.19531,0.15625 c -0.0521,0.16927 -0.0781,0.26693 -0.0781,0.29297 -0.23437,0.27344 -0.42969,0.48177 -0.58594,0.625 -0.14323,0.13021 -0.20182,0.21484 -0.17578,0.25391 -0.0521,0.0781 -0.12368,0.14973 -0.21484,0.21484 -0.0781,0.0651 -0.14323,0.18883 -0.19531,0.37109 -0.0521,0.16927 -0.15623,0.26693 -0.3125,0.29297 l -0.11719,0.27344 v 0.25391 c -0.0521,0.0391 -0.30597,0.35808 -0.76172,0.95703 l -0.68359,1.15234 -1.52344,2.05078 c -0.3125,0 -0.46875,0.20833 -0.46875,0.625 l -0.44922,0.56641 c -0.13021,0.13021 -0.20833,0.27344 -0.23437,0.42969 -0.0261,0.14323 -0.16279,0.21484 -0.41016,0.21484 -0.40365,0.48177 -0.87891,0.72266 -1.42578,0.72266 -0.14323,0 -0.25391,0.013 -0.33203,0.0391 l -0.60547,-0.41016 c -0.18229,-0.11719 -0.30599,-0.20833 -0.3711,-0.27343 -0.0651,-0.0781 -0.1107,-0.11719 -0.13671,-0.11719 -0.26042,-0.11719 -0.53386,-0.56641 -0.82032,-1.34766 -0.28645,-0.79427 -0.42968,-1.45182 -0.42968,-1.97265 0,-0.0781 0.0716,-0.42969 0.21484,-1.05469 v -0.0391 c 0,-0.0261 -0.0326,-0.0847 -0.0977,-0.17579 -0.0521,-0.0911 -0.0781,-0.17577 -0.0781,-0.2539 0,-0.10417 0.0456,-0.1888 0.13672,-0.25391 0.10417,-0.0781 0.15625,-0.15625 0.15625,-0.23437 0,-0.36459 0.0651,-0.61849 0.19531,-0.76172 0.0781,-0.23437 0.11719,-0.41667 0.11719,-0.54688 l -0.0781,-0.29297 c 0,-0.10417 0.0521,-0.26042 0.15625,-0.46875 0.19531,-0.0911 0.29297,-0.18879 0.29297,-0.29296 l -0.0391,-0.54688 c 0,-0.23437 0.14323,-0.37109 0.42969,-0.41016 -0.0261,-0.13021 -0.0391,-0.23437 -0.0391,-0.3125 0,-0.13021 0.0326,-0.2539 0.0977,-0.37109 0.0651,-0.13021 0.1042,-0.28646 0.11719,-0.46875 0.013,-0.18229 0.0651,-0.3125 0.15625,-0.39062 0.10417,-0.0911 0.18229,-0.26042 0.23437,-0.50782 0.0521,-0.24739 0.20832,-0.55989 0.46875,-0.9375 0.26042,-0.3776 0.41667,-0.65755 0.46875,-0.83984 0.0521,-0.19531 0.0976,-0.29297 0.13672,-0.29297 0.29948,0 0.44922,-0.0521 0.44922,-0.15625 0,-0.10417 -0.0846,-0.20833 -0.25391,-0.3125 l -0.0391,-0.11719 c 0,-0.27343 0.20182,-0.57942 0.60547,-0.91797 0,-0.3776 0.11719,-0.5664 0.35156,-0.5664 l -0.11719,-0.3125 c 0,-0.16927 0.11719,-0.46224 0.35157,-0.87891 0.24739,-0.42969 0.43619,-0.91146 0.5664,-1.44531 l 0.21485,-0.29297 c 0.10417,-0.13021 0.15625,-0.22135 0.15625,-0.27344 l -0.0391,-0.23437 c 0.13021,-0.32552 0.19532,-0.5013 0.19532,-0.52735 0,-0.14323 -0.0521,-0.24739 -0.15625,-0.3125 -0.40365,0.0521 -0.70964,0.23436 -0.91797,0.54688 l -0.0781,0.0977 h -0.37109 c -0.20833,0 -0.47526,0.22135 -0.80078,0.66406 l -0.56641,0.44922 c -0.59896,0.44271 -1.08073,0.8138 -1.44531,1.11328 -0.35156,0.28646 -0.59245,0.53386 -0.72266,0.74219 l -0.29297,0.44921 c -0.0651,0.11719 -0.16279,0.45574 -0.29296,1.01563 -0.13021,0.55989 -0.48829,0.83984 -1.07422,0.83984 -0.85938,0 -1.28907,-0.44271 -1.28907,-1.32812 0,-0.3125 0.35156,-0.76172 1.05469,-1.34766 z"
         style="font-family:'Rage Italic';-inkscape-font-specification:'Rage Italic, '"
         id="path77322"
         sodipodi:nodetypes="cccccsscccccscscsccccccccscccccccccscccscccscccccccscsscsccscscscscsssccscsccccccscscccccccccccsscccccccccccccccccccccccccccccccscccccccccccccccccccccccscccccscscscscccccccscscsscssccccccccccscccsccccccsscc" />
      <path
         d="m 246.10156,342.21196 -0.11719,-0.76172 v -0.11718 c 0,-0.61198 0.20833,-0.95052 0.625,-1.01563 0.0911,-0.013 0.36459,-0.0976 0.82032,-0.2539 0.23437,0.0521 0.47526,0.2604 0.72265,0.625 0.26042,0.35156 0.39063,0.66406 0.39063,0.9375 0,0.0261 -0.0195,0.0847 -0.0586,0.17578 -0.0391,0.0912 -0.0651,0.26693 -0.0781,0.52734 -0.013,0.24739 -0.14321,0.46875 -0.39063,0.66406 -0.23437,0.18229 -0.48828,0.27344 -0.76171,0.27344 -0.18229,0 -0.41667,-0.1237 -0.70313,-0.37109 -0.27344,-0.26042 -0.42318,-0.48829 -0.44922,-0.6836 z m -8.4375,9.76563 0.3125,-0.27344 h 0.11719 c 0.0911,0 0.22787,-0.0977 0.41016,-0.29297 l 0.19531,-0.0781 c 0.26041,-0.39063 0.48828,-0.61849 0.68359,-0.6836 l 0.3125,-0.23437 c 0.0521,-0.0521 0.12368,-0.0976 0.21485,-0.13672 0.10417,-0.0391 0.26042,-0.16276 0.46875,-0.37109 0.22135,-0.22136 0.39713,-0.33204 0.52734,-0.33204 0.13021,0 0.23437,0.013 0.3125,0.0391 0.0781,-0.15625 0.23438,-0.30599 0.46875,-0.44922 0.23437,-0.15625 0.42318,-0.33855 0.56641,-0.54688 l 0.2539,-0.11718 c 0.20833,-0.10417 0.39063,-0.23438 0.54688,-0.39063 0.16927,-0.16927 0.38411,-0.25391 0.64453,-0.25391 0.3776,0 0.76822,0.19531 1.17187,0.58594 0.41667,0.37761 1.01605,-2.53929 1.01605,-2.18773 l -0.72308,4.80492 c -0.22135,1.11979 -0.46875,1.70573 -0.74219,1.75781 l -0.0781,0.41016 c -0.18229,0.13021 -0.27344,0.23437 -0.27344,0.3125 l 0.11719,0.46875 c 0,0.0651 -0.0716,0.16272 -0.21484,0.29297 -0.0261,0 -0.0391,0.0391 -0.0391,0.11718 v 0.80079 c 0,0.14323 -0.0911,0.26041 -0.27343,0.35156 0.0261,0.0261 0.0651,0.0521 0.11718,0.0781 0.0781,-0.0781 0.25391,-0.11718 0.52735,-0.11718 l 0.3125,0.0391 0.42968,-0.42969 c 0.0911,-0.0261 1.91439,-2.31038 0.3711,-0.17578 1.56821,-0.88524 1.17759,-0.72898 1.56821,-0.88524 l 1.83023,-1.45851 c 0.35156,-0.35156 0.61849,-0.52734 0.80078,-0.52734 0.19531,0 0.29297,0.1237 0.29297,0.37109 0,0.28646 -0.0586,0.52735 -0.17579,0.72266 -0.10417,0.18229 -0.20182,0.41015 -0.29296,0.68359 -0.0911,0.26041 -0.20183,0.4427 -0.33204,0.54687 -0.11719,0.10417 -0.21484,0.22136 -0.29296,0.35157 -0.0781,0.11719 -0.29297,0.29297 -0.64454,0.52734 -0.33854,0.23437 -0.63151,0.47526 -0.8789,0.72266 -0.23437,0.23437 -0.42969,0.40364 -0.58594,0.50781 l -0.83984,0.60547 -0.11719,0.19531 c -0.0261,0.0261 -0.14976,0.0847 -0.37109,0.17578 -0.20833,0.0781 -0.39714,0.18229 -0.56641,0.3125 l -0.35156,0.19531 c -0.0781,0.0521 -0.20834,0.0846 -0.39063,0.0977 -0.16927,0.013 -0.31901,0.0911 -0.44922,0.23438 -0.13021,0.13021 -0.23437,0.19531 -0.3125,0.19531 l -0.29297,-0.0391 -0.39062,0.11718 c -0.22135,0 -0.49479,-0.13021 -0.82031,-0.39062 -0.3125,-0.27344 -0.46875,-0.5599 -0.46875,-0.85938 v -0.11718 l 0.0391,-0.27344 c 0,-0.0521 -0.0391,-0.18228 -0.11719,-0.39063 -0.0781,-0.22135 -0.11719,-0.34505 -0.11719,-0.37109 l 0.0391,-0.27344 -0.0391,-0.11719 c 0,-0.35156 0.026,-0.57291 0.0781,-0.66406 0.0521,-0.0911 0.0911,-0.21484 0.11719,-0.37109 0.0261,-0.16927 0.0521,-0.30599 0.0781,-0.41016 l 0.0977,-0.48828 c 0.0521,-0.15625 0.11717,-0.26041 0.19531,-0.3125 0.0261,-0.10417 0.0781,-0.27995 0.15625,-0.52734 l 0.0781,-0.35157 0.19531,-0.27343 c 0.10417,-0.10417 0.16276,-0.24089 0.17578,-0.41016 0.0261,-0.18229 0.0977,-0.3711 0.21484,-0.56641 0.11719,-0.19531 0.17578,-0.31249 0.17578,-0.35156 0,-0.15625 -0.0781,-0.23437 -0.23437,-0.23437 -0.0521,0 -0.21483,0.10417 -0.48828,0.3125 l -0.35156,-0.11719 c -0.0261,0 -0.0977,0.0651 -0.21485,0.19531 0,0.0521 -0.0586,0.0911 -0.17578,0.11719 -0.11719,0.0261 -0.22786,0.12372 -0.33203,0.29297 l -0.15625,0.0391 -0.25391,-0.11719 h -0.0781 c -0.13021,0 -0.20833,0.14323 -0.23438,0.42969 -0.14323,0.20833 -0.33203,0.34505 -0.5664,0.41016 l -0.42969,0.11718 c -0.14323,0.0521 -0.24739,0.16926 -0.3125,0.35157 -0.0651,0.18229 -0.19534,0.35156 -0.39063,0.50781 -0.19531,0.14323 -0.32551,0.21484 -0.39062,0.21484 -0.36459,0 -0.54688,-0.20182 -0.54688,-0.60547 l 0.15625,-0.91796 z"
         style="font-family:'Rage Italic';-inkscape-font-specification:'Rage Italic, '"
         id="path77324"
         sodipodi:nodetypes="ccscccssccscscccscccccssccccssccccccccssccccccccsscccccsccccccccccccsccccccscccccccccsscccscccscccccsccc" />
      <path
         d="m 255.45703,341.09868 0.27344,-0.0781 0.19531,-0.19532 h 0.0391 l 0.17578,0.0781 h 0.0391 c 1.57547,0 1.17325,-2.3943 1.36659,-2.33968 0.24739,-0.13021 -0.0971,1.94255 0.0592,1.89046 0.16927,-0.0521 0.27343,-0.0911 0.3125,-0.11719 0.0391,-0.0261 0.0716,-0.0391 0.0976,-0.0391 l 0.3125,0.0391 c 0.10417,0 0.24089,-0.18229 0.41016,-0.54687 0.18229,-0.37761 0.38412,-0.65104 0.60547,-0.82031 0.22135,-0.16927 0.44271,-0.48829 0.66406,-0.95704 0.36653,-0.50803 5.6696,-7.73367 2.66439,-3.53881 0.0651,-0.14323 1.05804,-1.26588 -2.33236,3.031 -0.12235,0.15507 3.4168,-4.20419 0.46875,-0.37109 3.00064,-2.89784 0.7311,-0.36665 0.97849,-0.36665 0.32553,0 5.12014,-5.3761 5.25035,-4.7511 l -4.3929,6.11384 c 0,0.013 -0.0326,0.11066 -0.0977,0.29297 -0.0651,0.16927 -0.0976,0.34505 -0.0976,0.52734 0.013,0.16927 0.007,0.28646 -0.0195,0.35157 -0.013,0.0521 -0.0195,0.11717 -0.0195,0.19531 0,0.10417 0.11068,0.15625 0.33203,0.15625 0.0781,0 0.22135,-0.0521 0.42968,-0.15625 l 0.11719,-0.0391 c 0.13021,0.0781 0.24088,0.11718 0.33203,0.11718 0.0261,0 0.30493,-0.11975 0.64345,-0.24996 0.35156,-0.13021 0.47634,-0.14717 0.56749,-0.16019 0.0912,-0.013 0.2474,-0.0651 0.46875,-0.15625 h 0.23438 l 0.15625,0.0586 c 0.0521,0 1.08974,-0.5002 1.24601,-0.60435 0.16927,-0.11719 -0.45174,0.2593 0.004,0.23326 l 0.27343,-0.11719 0.38159,0.18548 c 0.3878,0.18849 0.0547,0.62081 0.34104,0.38093 0.31117,-0.26071 -0.0651,0.21484 -0.19531,0.41015 -0.11719,0.19531 -0.21484,0.41667 -0.29297,0.66407 l -0.89844,1.13281 c -0.29948,0.39063 -0.59896,0.58594 -0.89844,0.58594 -0.0521,0 -0.21483,-0.17578 -0.48828,-0.52735 0,-0.0261 -0.026,-0.0391 -0.0781,-0.0391 -0.13021,0 -0.26693,0.026 -0.41016,0.0781 -0.14323,0.0521 -0.26041,0.0781 -0.35156,0.0781 -0.0391,0 -0.38412,0.0977 -1.03516,0.29297 l -0.46875,0.0781 c -0.0521,0 -0.17576,0.026 -0.37109,0.0781 l -0.9961,0.19531 c -0.33854,0.16927 -0.60547,0.48828 -0.80078,0.95703 0,0.0261 -0.0651,0.0847 -0.19531,0.17578 l 0.88133,-0.5005 c -0.28645,0.0781 -2.23549,2.34946 -2.32664,2.60988 l -0.0781,0.11719 c -0.14323,0.0261 -0.27343,0.1107 -0.39062,0.2539 -0.11719,0.13021 -0.22786,0.23437 -0.33203,0.3125 l -0.35157,0.52735 c -0.14323,0.18229 -0.28645,0.38411 -0.42968,0.60546 -0.14323,0.20833 -0.2474,0.4362 -0.3125,0.6836 -0.0651,0.23437 -0.11722,0.37109 -0.15625,0.41015 -0.0391,0.0391 -0.0586,0.11068 -0.0586,0.21485 l -0.0586,0.15625 c -0.15625,0.15625 -0.23438,0.33203 -0.23438,0.52734 l 0.0781,0.3125 c -0.18229,0.625 0.69773,-0.43405 0.69773,-0.39498 0,0.0261 -0.95817,1.48878 -0.93207,1.60592 v 0.11719 c 0,0.28645 -0.10417,0.64453 -0.3125,1.07422 l 0.0391,0.3125 -0.11719,0.8789 c 0,0.11719 0.0391,0.33203 0.11719,0.64453 -0.0521,0.0521 -0.0781,0.0911 -0.0781,0.11719 0,0.36459 0.1888,0.76823 0.56641,1.21094 0.39063,0.42969 0.58594,1.10677 0.58594,2.03125 0,0.0781 -0.0195,0.19531 -0.0586,0.35156 -0.0391,0.14323 -0.0651,0.30599 -0.0781,0.48828 -0.013,0.16927 -0.11717,0.33854 -0.3125,0.50781 -0.18229,0.16927 -0.33854,0.25391 -0.46875,0.25391 -0.69011,0 -1.20443,-0.5013 -1.54297,-1.50391 -0.33854,-1.0026 -0.50781,-1.64713 -0.50781,-1.93359 l 0.0391,-0.76172 -0.11719,-0.39062 0.11719,-1.71875 0.13434,-0.78111 0.23678,-1.30874 v -0.60547 c 0,-0.0261 0.0911,-0.13023 0.27344,-0.3125 0,-0.0261 -0.026,-0.0391 -0.0781,-0.0391 -0.0781,0 -0.18229,0.0781 -0.3125,0.23438 -0.13021,0.15625 -0.29297,0.30599 -0.48828,0.44922 l -0.15625,0.27343 c -0.0261,-0.0261 -0.0781,-0.0521 -0.15625,-0.0781 -0.0651,0.0261 -0.27998,0.33206 -0.64453,0.91797 -0.27343,0.0391 -0.48828,0.19532 -0.64453,0.46875 -0.15625,0.27343 -0.37109,0.41015 -0.64453,0.41015 l -0.0781,0.0391 c -0.0521,0.3776 -0.23436,0.5664 -0.54687,0.5664 l -0.0781,0.0391 c -0.19531,0.44271 -0.39713,0.65756 -0.60546,0.64454 -0.13021,0.39062 -0.44923,0.65755 -0.95704,0.80078 -0.0781,0.15625 -0.1888,0.27343 -0.33203,0.35156 -0.15625,0.0781 -0.26692,0.14974 -0.33203,0.21484 -0.0651,0.0651 -0.12373,0.0977 -0.17578,0.0977 -0.16927,0 -0.25391,-0.18229 -0.25391,-0.54688 0,-0.10417 0.0456,-0.21484 0.13672,-0.33203 0.0781,-0.13021 0.11719,-0.22135 0.11719,-0.27343 0,-0.0261 -0.0651,-0.10419 -0.19531,-0.23438 0,-0.40365 0.10417,-0.65755 0.3125,-0.76172 0.20833,-0.10417 0.36458,-0.25391 0.46875,-0.44922 0.0651,-0.15625 0.19534,-0.26692 0.39062,-0.33203 0.19531,-0.0651 0.29297,-0.1497 0.29297,-0.2539 0,-0.0912 0.16927,-0.27344 0.50781,-0.54688 0.33855,-0.27344 1.7392,-2.45532 1.89545,-2.65063 0.15625,-0.20833 -0.8668,1.63501 -0.76263,1.63501 l 0.0781,-0.0781 c 0.0261,-0.32552 0.14977,-0.48828 0.3711,-0.48828 l 0.19531,-0.11719 0.0391,-0.15625 0.11719,-0.0781 h 0.15625 l 0.0977,-0.0781 c 0.0261,-0.32552 0.17581,-0.57943 0.44922,-0.76172 0.28646,-0.18229 0.80078,-0.6901 1.54297,-1.52343 0.74219,-0.84636 1.15885,-1.38673 1.25,-1.6211 0.0911,-0.23437 0.25391,-0.54687 0.48828,-0.9375 0.2474,-0.40365 0.38412,-0.78125 0.41016,-1.13281 -0.0261,-0.0521 -0.0651,-0.10415 -0.11719,-0.15625 l -0.83984,0.41016 c 0,-0.0391 -0.13021,-0.0977 -0.39063,-0.17579 -0.19531,0.11719 -0.33854,0.23438 -0.42968,0.35157 -0.0911,0.11719 -0.16276,0.17578 -0.21485,0.17578 l -0.27344,-0.0391 -0.85937,0.0976 c -0.76823,0.0651 -1.34765,0.22138 -1.73828,0.46875 l -0.80078,0.23438 h -0.17578 c -0.10417,0 -0.26042,0.0651 -0.46875,0.19531 l -0.44922,-0.0391 c -0.41667,0.22135 -0.72266,0.33203 -0.91797,0.33203 -0.0261,0 -0.10419,-0.013 -0.23438,-0.0391 l -1.99218,0.54687 c -0.15625,0.0521 -0.50782,0.31899 -1.05469,0.80078 l -0.15625,0.0391 c -0.13021,0 -0.27995,-0.14323 -0.44922,-0.42968 -0.18229,-0.29948 4.87694,-19.62717 4.87694,-19.86155 0,-1.28906 -4.04361,17.023 -1.83007,16.81467 l 0.80079,-0.3125 h 0.0391 l 0.21484,0.0781 h 0.0781 c 0.0781,0 0.20182,-0.0456 0.37109,-0.13672 0.16927,-0.10417 0.54688,-0.22787 1.13281,-0.3711 l 0.80078,-0.21484 0.25391,0.0391 c 0.13021,0 2.45856,-2.216 0.42969,-0.15625 0.16927,-0.10417 1.11978,-0.33203 1.44531,-0.37109 0.33854,-0.0521 -0.13021,0.0521 0,0 l 0.3125,-0.0781 c 0.0521,0 0.15623,-0.0456 0.3125,-0.13671 0.16927,-0.0911 0.38412,-0.13672 0.64453,-0.13672 0.0391,0 0.13672,0.026 0.29297,0.0781 z"
         style="font-family:'Rage Italic';-inkscape-font-specification:'Rage Italic, '"
         id="path77326"
         sodipodi:nodetypes="cccccsccscccsccscscccccssccscsccccccsscccscsssccccccccccccccsccccscsccccscscccssccccccscssccccscccccccssscscsccsscccccccccccscccccscccccsccscccccsccccscccccccccscc" />
      <path
         d="m 275.69141,353.69634 0.3125,-0.27344 c 0.19531,0 0.31249,-0.0846 0.35156,-0.25391 0.0391,-0.18229 0.17578,-0.32551 0.41015,-0.42968 0.2474,-0.10417 0.47527,-0.3125 0.6836,-0.625 0.20833,-0.32552 0.42318,-0.48828 0.64453,-0.48828 0.0781,0 2.14358,-2.38307 2.24775,-2.25286 0.10417,0.13021 -1.81806,2.68254 -1.81806,2.76067 0,0.42969 -0.13021,0.87239 -0.39063,1.32812 l -0.0781,0.54688 -0.13672,0.2539 c -0.19531,0.10417 -0.32552,0.21485 -0.39063,0.33204 -0.0521,0.11719 -0.20181,0.26041 -0.44922,0.42968 l -0.19531,0.27344 c -0.28646,0.0911 -0.48177,0.24089 -0.58594,0.44922 -0.0911,0.20833 -0.22786,0.32552 -0.41015,0.35156 -0.16927,0.0261 -0.35808,0.15628 -0.56641,0.39063 -0.13021,0.0651 -0.28646,0.12366 -0.46875,0.17578 l -0.0391,0.19531 c -0.13021,0.13021 -0.33854,0.23437 -0.625,0.3125 -0.27344,0.0781 -0.48177,0.15625 -0.625,0.23438 -0.13021,0.0651 -0.22135,0.0976 -0.27344,0.0976 -0.24739,0 -0.47526,-0.0456 -0.68359,-0.13672 -0.20833,-0.10417 -0.42318,-0.16927 -0.64453,-0.19531 -0.0781,-0.0781 -0.1237,-0.16276 -0.13672,-0.25391 -0.013,-0.0911 -0.0781,-0.20833 -0.19531,-0.35156 -0.11719,-0.15625 -0.17579,-0.36458 -0.17579,-0.625 l 0.0781,-0.37109 c 0,-0.0521 -0.0326,-0.11717 -0.0977,-0.19531 -0.0651,-0.0781 -0.0976,-0.14323 -0.0976,-0.19532 0,-0.0521 0.013,-0.0911 0.0391,-0.11718 0.0261,-0.0261 0.0391,-0.0651 0.0391,-0.11719 0,-0.0651 -0.013,-0.13675 -0.0391,-0.21485 -0.0261,-0.0781 -0.0391,-0.14322 -0.0391,-0.19531 l 0.11718,-0.95703 c 0,-0.0781 -0.026,-0.11719 -0.0781,-0.11719 -0.0521,0 -0.14972,0.0651 -0.29297,0.19532 -0.13021,0.13021 -0.28646,0.19531 -0.46875,0.19531 -0.10417,0.0781 -0.1888,0.24089 -0.25391,0.48828 -0.10417,0.13021 -0.23437,0.24739 -0.39062,0.35156 l -0.0781,0.11719 c -0.0261,0.0911 -0.12372,0.16927 -0.29296,0.23437 -0.16927,0.0521 -0.28646,0.12368 -0.35157,0.21485 l -0.19531,0.19531 -0.37109,-0.0391 c -0.0261,0.0261 -0.0977,0.14325 -0.21485,0.35156 -0.11719,0.19531 -0.26693,0.35807 -0.44922,0.48828 l -1.48437,1.21094 c -0.15625,0.10417 -0.38412,0.23437 -0.68359,0.39062 l -0.11719,0.11719 c -1.04167,0.69011 -1.77734,1.03516 -2.20703,1.03516 -0.35157,0 -0.76172,-0.0977 -1.23047,-0.29297 -0.46875,-0.19531 -0.72266,-0.42969 -0.76172,-0.70313 l -0.19531,-0.80078 c -0.11719,-0.18229 -0.17578,-0.43619 -0.17578,-0.76172 0,-0.15625 0.013,-0.26041 0.0391,-0.3125 v -0.11718 l -0.0391,-0.64453 c 0,-0.15625 0.1237,-0.23438 0.37109,-0.23438 l -0.0391,-0.52734 c 0,-0.0521 0.11068,-0.25389 0.33203,-0.60547 0.23437,-0.36459 0.39062,-0.57292 0.46875,-0.625 l 0.19531,-0.25391 c -0.013,-0.15625 0.0781,-0.31901 0.27344,-0.48828 0.19531,-0.18229 0.35156,-0.36458 0.46875,-0.54687 0.11719,-0.18229 4.59635,-3.39194 4.92187,-3.61329 l -3.67187,2.42188 c 0,0 2.88191,-3.22476 3.41576,-3.4982 0.0781,-0.0261 -1.69701,2.24817 -1.46264,2.01382 0.2474,-0.23437 0.52084,-0.40364 0.82032,-0.50781 0.3125,-0.11719 0.61198,-0.26042 0.89843,-0.42969 0.29948,-0.16927 0.53386,-0.2539 0.70313,-0.2539 h 0.15625 c 0.0521,0 0.39712,-0.16276 1.03515,-0.48828 h 0.11719 c 1.10238,0 2.75887,-6.32633 0.3711,0.15625 h 0.0391 l 0.3125,-0.15625 c 0.0521,-0.0261 0.11717,-0.0391 0.19531,-0.0391 0.80729,0 1.25,0.5599 1.32813,1.67969 0.0261,0.23437 0.0912,0.35156 0.19531,0.35156 0.13021,0 0.3125,-0.23437 0.54687,-0.70312 0.2474,-0.48177 0.76172,-0.72266 1.54297,-0.72266 0.5599,0 0.83985,0.35807 0.83985,1.07422 0,0.84635 -0.37761,1.64714 -1.13282,2.40235 -0.0521,0.10417 -0.0911,0.22135 -0.11718,0.35156 l -0.27344,0.80078 v 0.0391 c 0,0.0781 -0.0586,0.1888 -0.17578,0.33203 -0.10417,0.13021 -0.15625,0.2474 -0.15625,0.35157 l 0.0391,0.48828 -0.0781,0.54687 c 0,0.2474 0.0456,0.41016 0.13672,0.48828 0.41667,-0.10417 0.71615,-0.27344 0.89844,-0.50781 0.19531,-0.24739 0.33203,-0.38411 0.41016,-0.41016 l 0.19531,-0.0781 c 0.11719,-0.19531 0.25391,-0.35807 0.41016,-0.48828 z m -6.48438,0 c 0.0521,-0.28646 0.20832,-0.5013 0.46875,-0.64453 0.27344,-0.15625 0.4362,-0.3125 0.48828,-0.46875 0.2474,-0.18229 0.59896,-0.50782 1.05469,-0.97657 0.46875,-0.46875 0.70312,-0.7552 0.70312,-0.85937 0,-0.0391 -0.026,-0.0586 -0.0781,-0.0586 h -0.0391 l -0.15625,0.0976 -0.35157,-0.0391 -0.37109,0.0391 -0.27344,-0.13672 -0.2539,0.0391 -0.39063,-0.0781 c -0.20833,0 -0.39062,0.0456 -0.54687,0.13672 -0.14323,0.0781 -0.42969,0.16927 -0.85938,0.27344 -0.41667,0.10417 -0.79427,0.28646 -1.13281,0.54687 -0.33854,0.2474 -0.58594,0.3711 -0.74219,0.3711 -0.0912,0.19531 -0.39714,0.47525 -0.91797,0.83984 -0.3125,0.10417 -0.51432,0.33203 -0.60547,0.68359 -0.33854,0.27344 -0.50781,0.42969 -0.50781,0.46875 l -0.13672,0.33203 c -0.10417,0.0911 -0.23437,0.16927 -0.39062,0.23438 -0.15625,0.0521 -0.2474,0.18879 -0.27344,0.41016 -0.0261,0.20833 -0.11721,0.40364 -0.27344,0.58593 -0.14323,0.16927 -0.21484,0.30599 -0.21484,0.41016 0,0.63802 0.1237,0.95703 0.37109,0.95703 0.10417,0 0.31901,-0.0651 0.64453,-0.19531 0.33855,-0.14323 0.53386,-0.24089 0.58594,-0.29297 0.0521,-0.0521 0.15623,-0.10415 0.3125,-0.15625 l 0.3711,-0.19531 c 0.0521,-0.0521 0.11066,-0.0846 0.17578,-0.0977 0.0651,-0.013 0.13017,-0.0521 0.19531,-0.11719 0.0651,-0.0781 0.18232,-0.15624 0.35156,-0.23437 0.16927,-0.0912 0.29948,-0.20833 0.39063,-0.35156 0.22135,-0.13021 0.57943,-0.33204 1.07422,-0.60547 l 0.41015,-0.3125 c 0.28646,-0.13021 0.46224,-0.24089 0.52735,-0.33203 0.0651,-0.0912 0.19527,-0.18229 0.39062,-0.27344 z"
         style="font-family:'Rage Italic';-inkscape-font-specification:'Rage Italic, '"
         id="path77328"
         sodipodi:nodetypes="cccccssscccccccccccccsccsccccssssccsccccccccccccccssccscccccccccscsccccsscscccscscsscccsccccccccccccccssccccccccccccccccccsscsccccccccccc" />
    </g>
    <path
       style="fill:#c64f80;fill-opacity:1;stroke:#c64f80;stroke-width:0.179;stroke-linecap:butt;stroke-linejoin:miter;stroke-miterlimit:4;stroke-dasharray:none;stroke-opacity:1"
       d="m 186.35624,125.1744 c 16.04574,-1.84636 30.9532,-14.41751 16.03973,1.29812 -0.3177,20.42313 -23.33056,-33.834122 -16.03973,-1.29812 z"
       id="path52928"
       sodipodi:nodetypes="ccc" />
    <path
       style="fill:#f64fc7;fill-opacity:1;stroke:#f64fc7;stroke-width:0.110391;stroke-linecap:butt;stroke-linejoin:miter;stroke-miterlimit:4;stroke-dasharray:none;stroke-opacity:1"
       d="m 168.14009,110.42592 c -10.36251,-1.09116 -19.9899,-8.52044 -10.35866,0.76716 0.20512,12.06964 15.06715,-19.995237 10.35866,-0.76716 z"
       id="path52928-8"
       sodipodi:nodetypes="ccc" />
    <path
       style="fill:#684fc7;fill-opacity:1;stroke:#684fc7;stroke-width:0.0718433;stroke-linecap:butt;stroke-linejoin:miter;stroke-miterlimit:4;stroke-dasharray:none;stroke-opacity:1"
       d="m 188.51177,105.1234 c -5.89912,-2.2358 -10.8231,-8.875397 -6.05811,-0.91373 -0.92847,8.61224 10.44995,-12.096957 6.05811,0.91373 z"
       id="path52928-8-9"
       sodipodi:nodetypes="ccc" />
    <ellipse
       id="path68377"
       style="fill:#684fc7;stroke:#8d0099;stroke-width:1.68714"
       cx="19.468718"
       cy="133.61127"
       rx="0.03943171"
       ry="0.038712393" />
    <ellipse
       id="path68379"
       style="fill:#684fc7;stroke:#8d0099;stroke-width:1.68714"
       cx="19.468718"
       cy="133.61127"
       rx="0.03943171"
       ry="0.038712393" />
    <path
       style="fill:#008080;fill-opacity:1;stroke:#005900;stroke-width:0.216043;stroke-linecap:butt;stroke-linejoin:miter;stroke-miterlimit:4;stroke-dasharray:none;stroke-opacity:1"
       d="m 82.194587,178.44101 c -5.19587,-2.23979 -5.524411,-5.18575 -5.524411,-5.18575 l 5.524411,5.18575"
       id="path167941"
       sodipodi:nodetypes="ccc" />
    <path
       style="fill:#008080;fill-opacity:1;stroke:#005900;stroke-width:0.34805;stroke-linecap:butt;stroke-linejoin:miter;stroke-miterlimit:4;stroke-dasharray:none;stroke-opacity:1"
       d="m 82.194587,178.44101 c -9.901455,-0.24057 -12.6135,3.51292 -12.6135,3.51292 l 12.6135,-3.51292"
       id="path167943"
       sodipodi:nodetypes="ccc" />
    <path
       style="fill:none;stroke:#000000;stroke-width:0.446614px;stroke-linecap:butt;stroke-linejoin:miter;stroke-opacity:1"
       d="m 97.116372,178.59127 c -32.215105,1.05734 -60.640925,-8.02622 -71.184682,-11.89896 -2.812768,-1.03312 -4.352924,-1.69542 -4.352924,-1.69542"
       id="path168104"
       sodipodi:nodetypes="csc" />
    <path
       style="fill:#008080;fill-opacity:1;stroke:#005900;stroke-width:0.216043;stroke-linecap:butt;stroke-linejoin:miter;stroke-miterlimit:4;stroke-dasharray:none;stroke-opacity:1"
       d="m 72.446037,177.55881 c -5.195874,-2.23978 -5.524408,-5.18575 -5.524408,-5.18575 l 5.524408,5.18575"
       id="path175676"
       sodipodi:nodetypes="ccc" />
    <path
       style="fill:#008080;fill-opacity:1;stroke:#005900;stroke-width:0.34805;stroke-linecap:butt;stroke-linejoin:miter;stroke-miterlimit:4;stroke-dasharray:none;stroke-opacity:1"
       d="m 72.446037,177.55881 c -9.901459,-0.24057 -12.6135,3.51291 -12.6135,3.51291 l 12.6135,-3.51291"
       id="path175678"
       sodipodi:nodetypes="ccc" />
    <path
       style="fill:#008080;fill-opacity:1;stroke:#005900;stroke-width:0.216043;stroke-linecap:butt;stroke-linejoin:miter;stroke-miterlimit:4;stroke-dasharray:none;stroke-opacity:1"
       d="m 62.178849,176.11893 c -5.195869,-2.23979 -5.524403,-5.18576 -5.524403,-5.18576 l 5.524403,5.18576"
       id="path175680"
       sodipodi:nodetypes="ccc" />
    <path
       style="fill:#008080;fill-opacity:1;stroke:#005900;stroke-width:0.34805;stroke-linecap:butt;stroke-linejoin:miter;stroke-miterlimit:4;stroke-dasharray:none;stroke-opacity:1"
       d="m 62.178849,176.11893 c -9.901454,-0.24057 -12.613495,3.51291 -12.613495,3.51291 l 12.613495,-3.51291"
       id="path175682"
       sodipodi:nodetypes="ccc" />
    <path
       style="fill:#008080;fill-opacity:1;stroke:#005900;stroke-width:0.216043;stroke-linecap:butt;stroke-linejoin:miter;stroke-miterlimit:4;stroke-dasharray:none;stroke-opacity:1"
       d="m 51.612002,173.99922 c -5.195869,-2.23978 -5.52441,-5.18575 -5.52441,-5.18575 l 5.52441,5.18575"
       id="path175684"
       sodipodi:nodetypes="ccc" />
    <path
       style="fill:#008080;fill-opacity:1;stroke:#005900;stroke-width:0.34805;stroke-linecap:butt;stroke-linejoin:miter;stroke-miterlimit:4;stroke-dasharray:none;stroke-opacity:1"
       d="m 51.612002,173.99922 c -9.901461,-0.24057 -12.613501,3.51292 -12.613501,3.51292 l 12.613501,-3.51292"
       id="path175686"
       sodipodi:nodetypes="ccc" />
    <path
       style="fill:#008080;fill-opacity:1;stroke:#005900;stroke-width:0.216043;stroke-linecap:butt;stroke-linejoin:miter;stroke-miterlimit:4;stroke-dasharray:none;stroke-opacity:1"
       d="m 51.612002,173.99922 c -5.195869,-2.23978 -5.52441,-5.18575 -5.52441,-5.18575 l 5.52441,5.18575"
       id="path175688"
       sodipodi:nodetypes="ccc" />
    <path
       style="fill:#008080;fill-opacity:1;stroke:#005900;stroke-width:0.34805;stroke-linecap:butt;stroke-linejoin:miter;stroke-miterlimit:4;stroke-dasharray:none;stroke-opacity:1"
       d="m 51.612002,173.99922 c -9.901461,-0.24057 -12.613501,3.51292 -12.613501,3.51292 l 12.613501,-3.51292"
       id="path175690"
       sodipodi:nodetypes="ccc" />
    <path
       style="fill:#008080;fill-opacity:1;stroke:#005900;stroke-width:0.216043;stroke-linecap:butt;stroke-linejoin:miter;stroke-miterlimit:4;stroke-dasharray:none;stroke-opacity:1"
       d="m 42.658676,171.82652 c -5.19587,-2.2398 -5.524407,-5.18576 -5.524407,-5.18576 l 5.524407,5.18576"
       id="path182757"
       sodipodi:nodetypes="ccc" />
    <path
       style="fill:#008080;fill-opacity:1;stroke:#005900;stroke-width:0.34805;stroke-linecap:butt;stroke-linejoin:miter;stroke-miterlimit:4;stroke-dasharray:none;stroke-opacity:1"
       d="m 42.658676,171.82652 c -9.901458,-0.24058 -12.613497,3.51291 -12.613497,3.51291 l 12.613497,-3.51291"
       id="path182759"
       sodipodi:nodetypes="ccc" />
    <path
       style="fill:#008080;fill-opacity:1;stroke:#005900;stroke-width:0.216043;stroke-linecap:butt;stroke-linejoin:miter;stroke-miterlimit:4;stroke-dasharray:none;stroke-opacity:1"
       d="m 33.667229,169.18643 c -5.19587,-2.23978 -5.524407,-5.18576 -5.524407,-5.18576 l 5.524407,5.18576"
       id="path182761"
       sodipodi:nodetypes="ccc" />
    <path
       style="fill:#008080;fill-opacity:1;stroke:#005900;stroke-width:0.34805;stroke-linecap:butt;stroke-linejoin:miter;stroke-miterlimit:4;stroke-dasharray:none;stroke-opacity:1"
       d="m 33.667229,169.18643 c -9.901458,-0.24057 -12.613497,3.51292 -12.613497,3.51292 l 12.613497,-3.51292"
       id="path182763"
       sodipodi:nodetypes="ccc" />
    <path
       style="fill:#008080;fill-opacity:1;stroke:#005900;stroke-width:0.216043;stroke-linecap:butt;stroke-linejoin:miter;stroke-miterlimit:4;stroke-dasharray:none;stroke-opacity:1"
       d="m 26.494988,166.76952 c -5.19587,-2.23978 -5.524408,-5.18576 -5.524408,-5.18576 l 5.524408,5.18576"
       id="path182765"
       sodipodi:nodetypes="ccc" />
    <path
       style="fill:#008080;fill-opacity:1;stroke:#005900;stroke-width:0.34805;stroke-linecap:butt;stroke-linejoin:miter;stroke-miterlimit:4;stroke-dasharray:none;stroke-opacity:1"
       d="m 26.494988,166.76952 c -9.901459,-0.24057 -12.613497,3.51292 -12.613497,3.51292 l 12.613497,-3.51292"
       id="path182767"
       sodipodi:nodetypes="ccc" />
    <path
       style="fill:#008080;fill-opacity:1;stroke:#005900;stroke-width:0.217895;stroke-linecap:butt;stroke-linejoin:miter;stroke-miterlimit:4;stroke-dasharray:none;stroke-opacity:1"
       d="m 113.57355,178.45268 c 5.73049,-2.06581 6.09285,-4.78294 6.09285,-4.78294 l -6.09285,4.78294"
       id="path182853"
       sodipodi:nodetypes="ccc" />
    <path
       style="fill:#008080;fill-opacity:1;stroke:#005900;stroke-width:0.351034;stroke-linecap:butt;stroke-linejoin:miter;stroke-miterlimit:4;stroke-dasharray:none;stroke-opacity:1"
       d="m 113.57355,178.45268 c 10.92026,-0.22188 13.91137,3.24004 13.91137,3.24004 l -13.91137,-3.24004"
       id="path182855"
       sodipodi:nodetypes="ccc" />
    <path
       style="fill:none;stroke:#000000;stroke-width:0.450444px;stroke-linecap:butt;stroke-linejoin:miter;stroke-opacity:1"
       d="m 97.116372,178.59127 c 35.529898,0.9752 66.880608,-7.40278 78.509268,-10.97469 3.10219,-0.95287 4.80081,-1.56372 4.80081,-1.56372"
       id="path182857"
       sodipodi:nodetypes="csc" />
    <path
       style="fill:#008080;fill-opacity:1;stroke:#005900;stroke-width:0.217895;stroke-linecap:butt;stroke-linejoin:miter;stroke-miterlimit:4;stroke-dasharray:none;stroke-opacity:1"
       d="m 124.32517,177.63901 c 5.73051,-2.0658 6.09285,-4.78295 6.09285,-4.78295 l -6.09285,4.78295"
       id="path182859"
       sodipodi:nodetypes="ccc" />
    <path
       style="fill:#008080;fill-opacity:1;stroke:#005900;stroke-width:0.351034;stroke-linecap:butt;stroke-linejoin:miter;stroke-miterlimit:4;stroke-dasharray:none;stroke-opacity:1"
       d="m 124.32517,177.63901 c 10.92028,-0.22188 13.91137,3.24004 13.91137,3.24004 l -13.91137,-3.24004"
       id="path182861"
       sodipodi:nodetypes="ccc" />
    <path
       style="fill:#008080;fill-opacity:1;stroke:#005900;stroke-width:0.217895;stroke-linecap:butt;stroke-linejoin:miter;stroke-miterlimit:4;stroke-dasharray:none;stroke-opacity:1"
       d="m 135.64881,176.31097 c 5.7305,-2.06581 6.09284,-4.78294 6.09284,-4.78294 l -6.09284,4.78294"
       id="path182863"
       sodipodi:nodetypes="ccc" />
    <path
       style="fill:#008080;fill-opacity:1;stroke:#005900;stroke-width:0.351034;stroke-linecap:butt;stroke-linejoin:miter;stroke-miterlimit:4;stroke-dasharray:none;stroke-opacity:1"
       d="m 135.64881,176.31097 c 10.92027,-0.22188 13.91136,3.24005 13.91136,3.24005 l -13.91136,-3.24005"
       id="path182865"
       sodipodi:nodetypes="ccc" />
    <path
       style="fill:#008080;fill-opacity:1;stroke:#005900;stroke-width:0.217895;stroke-linecap:butt;stroke-linejoin:miter;stroke-miterlimit:4;stroke-dasharray:none;stroke-opacity:1"
       d="m 147.30294,174.35591 c 5.7305,-2.0658 6.09284,-4.78293 6.09284,-4.78293 l -6.09284,4.78293"
       id="path182867"
       sodipodi:nodetypes="ccc" />
    <path
       style="fill:#008080;fill-opacity:1;stroke:#005900;stroke-width:0.351034;stroke-linecap:butt;stroke-linejoin:miter;stroke-miterlimit:4;stroke-dasharray:none;stroke-opacity:1"
       d="m 147.30294,174.35591 c 10.92028,-0.22188 13.91137,3.24005 13.91137,3.24005 l -13.91137,-3.24005"
       id="path182869"
       sodipodi:nodetypes="ccc" />
    <path
       style="fill:#008080;fill-opacity:1;stroke:#005900;stroke-width:0.217895;stroke-linecap:butt;stroke-linejoin:miter;stroke-miterlimit:4;stroke-dasharray:none;stroke-opacity:1"
       d="m 147.30294,174.35591 c 5.7305,-2.0658 6.09284,-4.78293 6.09284,-4.78293 l -6.09284,4.78293"
       id="path182871"
       sodipodi:nodetypes="ccc" />
    <path
       style="fill:#008080;fill-opacity:1;stroke:#005900;stroke-width:0.351034;stroke-linecap:butt;stroke-linejoin:miter;stroke-miterlimit:4;stroke-dasharray:none;stroke-opacity:1"
       d="m 147.30294,174.35591 c 10.92028,-0.22188 13.91137,3.24005 13.91137,3.24005 l -13.91137,-3.24005"
       id="path182873"
       sodipodi:nodetypes="ccc" />
    <path
       style="fill:#008080;fill-opacity:1;stroke:#005900;stroke-width:0.217895;stroke-linecap:butt;stroke-linejoin:miter;stroke-miterlimit:4;stroke-dasharray:none;stroke-opacity:1"
       d="m 157.17752,172.35198 c 5.7305,-2.06581 6.09284,-4.78295 6.09284,-4.78295 l -6.09284,4.78295"
       id="path182875"
       sodipodi:nodetypes="ccc" />
    <path
       style="fill:#008080;fill-opacity:1;stroke:#005900;stroke-width:0.351034;stroke-linecap:butt;stroke-linejoin:miter;stroke-miterlimit:4;stroke-dasharray:none;stroke-opacity:1"
       d="m 157.17752,172.35198 c 10.92027,-0.22189 13.91137,3.24005 13.91137,3.24005 l -13.91137,-3.24005"
       id="path182877"
       sodipodi:nodetypes="ccc" />
    <path
       style="fill:#008080;fill-opacity:1;stroke:#005900;stroke-width:0.217895;stroke-linecap:butt;stroke-linejoin:miter;stroke-miterlimit:4;stroke-dasharray:none;stroke-opacity:1"
       d="m 167.09414,169.91697 c 5.73051,-2.0658 6.09285,-4.78295 6.09285,-4.78295 l -6.09285,4.78295"
       id="path182879"
       sodipodi:nodetypes="ccc" />
    <path
       style="fill:#008080;fill-opacity:1;stroke:#005900;stroke-width:0.351034;stroke-linecap:butt;stroke-linejoin:miter;stroke-miterlimit:4;stroke-dasharray:none;stroke-opacity:1"
       d="m 167.09414,169.91697 c 10.92028,-0.22188 13.91137,3.24005 13.91137,3.24005 l -13.91137,-3.24005"
       id="path182881"
       sodipodi:nodetypes="ccc" />
    <path
       style="fill:#008080;fill-opacity:1;stroke:#005900;stroke-width:0.217895;stroke-linecap:butt;stroke-linejoin:miter;stroke-miterlimit:4;stroke-dasharray:none;stroke-opacity:1"
       d="m 175.00438,167.68779 c 5.7305,-2.0658 6.09284,-4.78295 6.09284,-4.78295 l -6.09284,4.78295"
       id="path182883"
       sodipodi:nodetypes="ccc" />
    <path
       style="fill:#008080;fill-opacity:1;stroke:#005900;stroke-width:0.351034;stroke-linecap:butt;stroke-linejoin:miter;stroke-miterlimit:4;stroke-dasharray:none;stroke-opacity:1"
       d="m 175.00438,167.68779 c 10.92028,-0.22188 13.91136,3.24005 13.91136,3.24005 l -13.91136,-3.24005"
       id="path182885"
       sodipodi:nodetypes="ccc" />
  </g>
</svg>
