<?xml version="1.0" encoding="UTF-8" standalone="no"?>
<!-- Created with Inkscape (http://www.inkscape.org/) -->

<svg
   width="2cm"
   height="2cm"
   viewBox="0 0 20 20"
   version="1.1"
   id="svg5"
   sodipodi:docname="ikonajabukamrkvacikla.svg"
   inkscape:version="1.1.2 (0a00cf5339, 2022-02-04)"
   xmlns:inkscape="http://www.inkscape.org/namespaces/inkscape"
   xmlns:sodipodi="http://sodipodi.sourceforge.net/DTD/sodipodi-0.dtd"
   xmlns="http://www.w3.org/2000/svg"
   xmlns:svg="http://www.w3.org/2000/svg">
  <sodipodi:namedview
     id="namedview7"
     pagecolor="#505050"
     bordercolor="#ffffff"
     borderopacity="1"
     inkscape:pageshadow="0"
     inkscape:pageopacity="0"
     inkscape:pagecheckerboard="1"
     inkscape:document-units="mm"
     showgrid="false"
     width="209mm"
     units="cm"
     inkscape:zoom="5.5736046"
     inkscape:cx="72.305093"
     inkscape:cy="39.382054"
     inkscape:window-width="1081"
     inkscape:window-height="730"
     inkscape:window-x="0"
     inkscape:window-y="20"
     inkscape:window-maximized="0"
     inkscape:current-layer="layer1" />
  <defs
     id="defs2" />
  <g
     inkscape:label="Layer 1"
     inkscape:groupmode="layer"
     id="layer1">
    <ellipse
       style="fill:#ff0000;fill-rule:evenodd;stroke-width:0.114411"
       id="path477"
       cx="7.6158433"
       cy="12.717912"
       rx="1.9403645"
       ry="1.849053" />
    <ellipse
       style="fill:#ff0000;fill-rule:evenodd;stroke-width:0.114411"
       id="ellipse561"
       cx="5.6798391"
       cy="12.685378"
       rx="1.9403645"
       ry="1.849053" />
    <path
       style="fill:#008000;stroke:#000000;stroke-width:0.125044px;stroke-linecap:butt;stroke-linejoin:miter;stroke-opacity:1"
       d="m 7.8952045,9.9753697 c -0.1608389,0.03952 -0.5273,0.0688 -0.4109668,0.07971 3.1414543,0.294797 -0.1445343,0.719277 -0.9463108,1.109814"
       id="path631"
       sodipodi:nodetypes="csc" />
    <path
       style="fill:#ff6600;stroke-width:0.0384843"
       d="m 9.8825925,14.395705 c 0,-0.01 -0.216201,-0.616474 -0.480447,-1.3478 -0.573312,-1.5867 -0.783647,-2.227909 -0.750542,-2.288038 0.01347,-0.02447 0.16631,-0.06918 0.339636,-0.09935 0.442012,-0.07694 0.677222,-0.180402 0.79473,-0.349587 0.122364,-0.176174 0.122364,-0.3185059 0,-0.4946799 -0.117552,-0.169249 -0.286049,-0.241112 -1.009712,-0.430642 -0.2915645,-0.07636 -0.5469328,-0.153852 -0.567483,-0.172199 -0.062203,-0.05553 0.00195,-0.883735 0.084591,-1.09222 0.1477453,-0.37269 0.384386,-0.596914 0.69299,-0.656631 0.09995,-0.01934 0.54161,-0.03525 0.981465,-0.03534 0.6434895,-1.44e-4 0.8306125,0.01003 0.9577725,0.05209 0.254549,0.08419 0.44972,0.301147 0.270905,0.301147 -0.104529,0 -0.44392,0.227263 -0.51425,0.344352 -0.03415,0.05686 -0.0621,0.154918 -0.0621,0.217901 0,0.25622 0.203012,0.425779 0.724287,0.604939 0.168501,0.05791 0.289708,0.120273 0.289505,0.14895 -7.45e-4,0.105529 -0.102622,0.503553 -0.357077,1.3950739 l -0.264888,0.92807 -0.332424,0.11 c -0.373357,0.123544 -0.540551,0.241036 -0.614173,0.431599 -0.086691,0.224383 0.02349,0.435458 0.319485,0.612043 l 0.182006,0.108583 -0.05861,0.191833 c -0.10834,0.35461 -0.5436765,1.476674 -0.5848785,1.507504 -0.02244,0.01678 -0.04079,0.02237 -0.04079,0.01241 z"
       id="path2131" />
    <path
       style="fill:#008000;stroke-width:0.0384843"
       d="M 8.2391509,6.6012291 C 8.2099545,6.5882461 8.0619269,6.4310441 7.9102011,6.2518911 7.5910911,5.8750951 7.3962429,5.6861129 6.9369484,5.3079409 6.5731335,5.0083844 6.5425777,4.9278516 6.7516472,4.8195682 c 0.117537,-0.060876 0.1223357,-0.060793 0.4148749,0.00715 0.3899922,0.09058 0.9795413,0.3126409 1.5027854,0.5660421 0.232743,0.1127143 0.455912,0.2049354 0.495932,0.2049354 0.04636,0 0.138182,-0.098691 0.25303,-0.2719503 0.195788,-0.2953667 0.359537,-0.4348818 0.51042,-0.4348818 0.1588315,0 0.3062015,0.1321539 0.3426215,0.3072455 0.06479,0.311448 0.12418,0.4317153 0.213216,0.4317153 0.04615,0 0.183713,-0.060344 0.305684,-0.1340978 0.496722,-0.3003584 1.382988,-0.6349512 1.704142,-0.6433662 0.130916,-0.00343 0.192689,0.015129 0.276565,0.083092 0.0594,0.04813 0.107999,0.1064366 0.107999,0.1295703 0,0.023134 -0.204581,0.2789557 -0.454623,0.5684933 -0.250043,0.2895371 -0.541371,0.6312521 -0.647396,0.7593651 -0.181761,0.219628 -0.202045,0.232933 -0.35511,0.232933 -0.183078,0 -0.340666,-0.04801 -0.340666,-0.103791 0,-0.0205 0.136315,-0.223745 0.302921,-0.451655 0.435358,-0.5955503 0.379407,-0.6277782 -0.33843,-0.194936 -0.221329,0.133456 -0.447559,0.257518 -0.502735,0.275692 -0.142814,0.04704 -0.287914,0.0125 -0.513909,-0.122322 -0.1082855,-0.0646 -0.2080785,-0.109653 -0.2217625,-0.100116 -0.01368,0.0095 -0.05937,0.06532 -0.101514,0.123957 -0.0442,0.06149 -0.131712,0.119934 -0.206773,0.138085 -0.157432,0.03807 -0.269262,-0.0026 -0.819022,-0.297754 -0.4983813,-0.267582 -0.5400732,-0.2346032 -0.2327079,0.184075 0.1302809,0.177462 0.2368739,0.351474 0.2368739,0.386694 0,0.100496 -0.3115692,0.196774 -0.4449126,0.137483 z"
       id="path2398" />
    <path
       style="fill:#800080;stroke-width:0.0412174"
       d="M 12.715553,15.040619 C 12.44764,14.76907 12.170329,14.47324 12.099306,14.383221 l -0.129133,-0.163669 0.672467,-0.0045 c 0.799708,-0.0054 0.856292,-0.01847 0.869587,-0.201283 0.01965,-0.270135 0.02447,-0.268756 -1.001013,-0.28616 l -0.937804,-0.01592 -0.170199,-0.309762 c -0.288727,-0.52548 -0.402194,-0.87486 -0.421946,-1.299234 -0.0095,-0.204255 -0.0065,-0.441028 0.0067,-0.526162 l 0.02401,-0.15479 0.568328,-0.02437 c 0.489393,-0.02099 0.57517,-0.0357 0.617596,-0.105895 0.06574,-0.10879 0.06219,-0.223431 -0.0096,-0.310312 -0.04723,-0.05715 -0.151302,-0.07125 -0.525917,-0.07125 h -0.467097 l 0.04459,-0.100812 c 0.08208,-0.185562 0.411988,-0.571984 0.645213,-0.755737 0.625346,-0.4926975 1.366532,-0.613736 2.085713,-0.3406077 1.177271,0.4471017 1.82396,1.8471747 1.395066,3.0203027 l -0.07508,0.205345 -0.969134,0.02238 c -0.533025,0.01231 -0.998002,0.03724 -1.033285,0.05538 -0.12868,0.06618 -0.128325,0.35959 4.93e-4,0.405236 0.03501,0.01241 0.431018,0.03675 0.880014,0.05408 0.448995,0.01734 0.811531,0.0474 0.805635,0.0668 -0.02916,0.09594 -0.555319,0.794739 -0.791661,1.051421 -0.302428,0.328456 -0.926541,0.940654 -0.958961,0.940654 -0.0117,0 -0.240481,-0.222177 -0.508394,-0.493727 z m 0.271681,-3.733469 c 0.0596,-0.05809 0.06077,-0.271589 0.0019,-0.342847 -0.0639,-0.07731 -0.38524,-0.06939 -0.440282,0.01087 -0.07228,0.105382 -0.03232,0.3108 0.07306,0.375646 0.0969,0.05962 0.282087,0.03749 0.365346,-0.04366 z"
       id="path560" />
    <path
       style="fill:#008000;stroke-width:0.0412174"
       d="M 12.873433,8.6916305 C 12.721982,8.47375 12.656409,8.2551145 12.632687,7.8889399 c -0.04031,-0.6222494 0.109722,-1.1748012 0.36333,-1.3380791 0.274451,-0.1766967 0.559053,-0.05522 0.711855,0.303835 0.07692,0.1807319 0.09545,0.2989068 0.107222,0.6834272 0.01649,0.5390169 -0.04566,0.8506609 -0.22032,1.1048874 l -0.109018,0.1586831 -0.0037,-0.6800664 c -0.0043,-0.7850887 -0.0385,-1.1470729 -0.113755,-1.2047041 -0.08795,-0.067351 -0.243703,-0.047315 -0.308814,0.039741 -0.05151,0.068853 -0.06281,0.224673 -0.07138,0.9835166 l -0.01019,0.9016974 z"
       id="path673" />
    <path
       style="fill:#008000;stroke-width:0.0412174"
       d="m 14.053958,8.8356963 c 0.212557,-0.5018108 0.271859,-0.8394776 0.237856,-1.3543481 -0.02358,-0.3569888 -0.02169,-0.3691041 0.06155,-0.396086 0.483799,-0.1568017 0.808329,0.273336 0.592473,0.7852744 -0.09856,0.2337379 -0.449368,0.6877446 -0.664887,0.860466 C 14.113836,8.8649322 14.024021,8.9063555 14.053951,8.8357 Z"
       id="path712" />
    <path
       style="fill:#008000;stroke-width:0.0412174"
       d="M 12.067455,8.6213562 C 11.71012,8.2830664 11.422803,7.798359 11.422803,7.5338227 c 0,-0.068206 0.05034,-0.182226 0.121782,-0.2758501 0.131959,-0.172923 0.305046,-0.2340958 0.522506,-0.1846669 l 0.123876,0.02816 4.75e-4,0.6234271 c 4.41e-4,0.5806308 0.0073,0.641321 0.100988,0.8841176 0.05528,0.1433805 0.08631,0.2606916 0.06893,0.2606916 -0.01737,0 -0.149625,-0.1117586 -0.293903,-0.2483429 z"
       id="path751" />
  </g>
</svg>
