<?xml version="1.0" encoding="UTF-8" standalone="no"?>
<!-- Created with Inkscape (http://www.inkscape.org/) -->

<svg
   width="2cm"
   height="2cm"
   viewBox="0 0 20 20"
   version="1.1"
   id="svg5"
   sodipodi:docname="ikona kruska.svg"
   inkscape:version="1.1.2 (0a00cf5339, 2022-02-04)"
   xmlns:inkscape="http://www.inkscape.org/namespaces/inkscape"
   xmlns:sodipodi="http://sodipodi.sourceforge.net/DTD/sodipodi-0.dtd"
   xmlns="http://www.w3.org/2000/svg"
   xmlns:svg="http://www.w3.org/2000/svg">
  <sodipodi:namedview
     id="namedview7"
     pagecolor="#505050"
     bordercolor="#ffffff"
     borderopacity="1"
     inkscape:pageshadow="0"
     inkscape:pageopacity="0"
     inkscape:pagecheckerboard="1"
     inkscape:document-units="mm"
     showgrid="false"
     width="209mm"
     units="cm"
     inkscape:zoom="2.7868023"
     inkscape:cx="101.01183"
     inkscape:cy="31.03916"
     inkscape:window-width="1348"
     inkscape:window-height="730"
     inkscape:window-x="0"
     inkscape:window-y="20"
     inkscape:window-maximized="0"
     inkscape:current-layer="layer1" />
  <defs
     id="defs2" />
  <g
     inkscape:label="Layer 1"
     inkscape:groupmode="layer"
     id="layer1">
    <path
       style="fill:#000000;stroke-width:0.0526797"
       d="m 41.619866,20.557985 c -0.215887,-0.124111 -0.218676,-0.132289 -0.856759,-2.510311 -0.823917,-3.070593 -1.57212,-6.227712 -1.538376,-6.491325 0.0145,-0.113302 0.07154,-0.135422 0.726178,-0.281646 l 0.710437,-0.158688 -0.830826,-0.29967 c -0.522488,-0.188456 -0.841062,-0.330717 -0.85841,-0.383324 -0.07564,-0.229367 -0.128255,-1.4595449 -0.0831,-1.94297 0.09665,-1.0347673 0.384032,-1.70254 0.945112,-2.1960441 0.507151,-0.4460702 0.624369,-0.472109 2.123937,-0.4718055 l 1.252732,2.754e-4 0.331972,0.1564032 c 0.415285,0.1956547 0.768368,0.5585959 1.011915,1.0401691 0.1708,0.3377285 0.330614,0.7897051 0.291056,0.823145 -0.0094,0.00794 -0.236856,0.1184758 -0.505411,0.2455796 l -0.488284,0.2310989 0.542537,0.2479847 0.542537,0.2479846 0.016,0.3732148 c 0.0088,0.2052689 -0.02256,0.6541233 -0.06966,0.9974563 -0.09063,0.660513 -0.70289,3.670251 -0.783372,3.85087 -0.03117,0.06994 -0.188648,0.157229 -0.459677,0.25479 -0.425472,0.153157 -0.483022,0.199002 -0.313488,0.249733 0.05434,0.01625 0.21354,0.09818 0.353799,0.182038 0.227197,0.135846 0.251368,0.167871 0.221585,0.293585 -0.27129,1.145158 -1.380401,5.11554 -1.495591,5.353895 -0.07511,0.15542 -0.299859,0.286105 -0.491536,0.285811 -0.06862,-1.15e-4 -0.201503,-0.04431 -0.295293,-0.09823 z m 0.570898,-0.176358 c 0.08385,-0.08414 0.203701,-0.409381 0.391144,-1.061395 0.241201,-0.83901 1.073606,-3.896744 1.156762,-4.249218 0.0302,-0.128029 0.0056,-0.151134 -0.350241,-0.327374 -0.517322,-0.256301 -0.501937,-0.333213 0.110949,-0.5547 l 0.461157,-0.166652 0.309947,-1.427249 c 0.360406,-1.659601 0.522149,-2.635199 0.536953,-3.2387802 l 0.01053,-0.4304407 -0.577925,-0.273346 C 43.879119,8.4817637 43.662115,8.349372 43.662115,8.2998852 c 0,-0.050164 0.189118,-0.1619972 0.51541,-0.3047803 0.283476,-0.1240468 0.515409,-0.2372782 0.515409,-0.2516244 0,-0.014344 -0.06021,-0.1769197 -0.133818,-0.3612737 C 44.309081,6.7559114 43.91425,6.3056803 43.414404,6.076879 43.213951,5.9851182 43.077545,5.9759101 41.919518,5.9759101 c -1.255837,0 -1.278315,0.00192 -1.550826,0.1299161 -0.546577,0.256797 -0.992723,0.8606561 -1.221312,1.6530468 -0.09132,0.3165703 -0.113852,0.5516034 -0.118377,1.2349787 -0.0031,0.4642008 0.0138,0.9715657 0.0376,1.1274783 l 0.04318,0.283478 0.835337,0.299938 c 0.459433,0.164966 0.864704,0.317051 0.900597,0.337967 0.16765,0.09769 -0.02967,0.188782 -0.751908,0.347128 l -0.759101,0.166427 0.233156,1.058976 c 0.326215,1.481636 0.599638,2.588019 1.21867,4.931218 0.637523,2.4132 0.733209,2.726927 0.871456,2.85727 0.144669,0.136398 0.384723,0.126442 0.532732,-0.0221 z m -0.82214,-3.523225 c -0.51309,-1.959888 -1.123936,-4.499775 -1.124258,-4.674643 -1.69e-4,-0.09542 0.06356,-0.124226 0.499794,-0.225847 0.40979,-0.09546 0.538299,-0.150166 0.7123,-0.303192 0.180841,-0.159043 0.216259,-0.22553 0.238998,-0.448641 0.02121,-0.208099 0.0028,-0.298304 -0.08934,-0.438937 -0.15578,-0.237637 -0.261281,-0.29591 -1.080976,-0.597078 -0.558943,-0.2053638 -0.70978,-0.2816591 -0.735469,-0.3720086 -0.06286,-0.2211032 -0.03269,-1.3121807 0.04722,-1.7076448 0.101769,-0.5035945 0.344413,-0.9748801 0.62496,-1.2138449 l 0.216645,-0.1845346 h 1.196119 c 1.350758,0 1.407147,0.012295 1.680084,0.3675695 0.215415,0.2803706 0.206237,0.3652272 -0.05135,0.4747421 -0.374439,0.1591938 -0.600764,0.4607302 -0.600764,0.8004078 0,0.3342398 0.318495,0.6637885 0.831098,0.8599427 l 0.308231,0.1179508 -2.01e-4,0.2881801 c -1.22e-4,0.1584984 -0.03741,0.5068539 -0.08285,0.7741189 -0.09759,0.573793 -0.618562,3.073283 -0.650839,3.122524 -0.01224,0.01871 -0.167065,0.08378 -0.344001,0.144611 -0.838368,0.288204 -0.992126,1.044589 -0.305151,1.501126 0.300465,0.199677 0.327314,-0.03204 -0.231329,1.996532 -0.321785,1.168485 -0.438547,1.521759 -0.502965,1.521759 -0.06518,0 -0.189219,-0.40232 -0.555934,-1.803092 z m 0.675379,1.125333 c 0.04648,-0.175833 0.224167,-0.836944 0.394853,-1.469136 0.217229,-0.804572 0.291079,-1.15549 0.246148,-1.169612 -0.138046,-0.04339 -0.453353,-0.347664 -0.522915,-0.50463 -0.118506,-0.267405 -0.09255,-0.614678 0.0649,-0.867954 0.114933,-0.184917 0.208521,-0.253592 0.556257,-0.40821 l 0.418067,-0.185892 0.286789,-1.386588 C 43.765724,10.64944 43.832076,10.28692 43.902791,9.7260401 L 43.936235,9.4607752 43.495871,9.2447717 C 43.004515,9.0037552 42.822988,8.805411 42.762279,8.4432113 c -0.05089,-0.3036302 0.09016,-0.6285377 0.371369,-0.8554872 0.122377,-0.098766 0.2533,-0.179572 0.290926,-0.179572 0.214593,0 0.03252,-0.3306706 -0.283436,-0.51478 -0.152824,-0.089046 -0.276001,-0.099022 -1.221507,-0.098843 -1.193945,1.883e-4 -1.260121,0.017789 -1.565895,0.4157616 -0.32086,0.417607 -0.509693,1.3409461 -0.449327,2.1970737 l 0.02735,0.387935 0.720481,0.2656786 c 0.817292,0.301379 0.974869,0.399253 1.116656,0.693584 0.131925,0.273867 0.128652,0.509766 -0.01082,0.781442 -0.140906,0.274439 -0.422199,0.438828 -0.958548,0.560192 -0.257761,0.05832 -0.392583,0.113673 -0.392583,0.161162 0,0.114903 0.410984,1.849736 0.814313,3.437349 0.54753,2.15523 0.670258,2.60873 0.70598,2.60873 0.01775,0 0.0703,-0.143864 0.116784,-0.319698 z M 28.202078,17.242902 c -0.454998,-0.08038 -1.105852,-0.447652 -1.58992,-0.897175 -1.069534,-0.993207 -1.794813,-2.491375 -1.933122,-3.993137 -0.177865,-1.931265 0.549236,-3.506461 1.935618,-4.1933287 0.48421,-0.2398972 0.946297,-0.3401976 1.57163,-0.3411402 0.276015,-4.059e-4 0.501846,-0.013101 0.501846,-0.028188 0,-0.015086 -0.121921,-0.177409 -0.270942,-0.3607167 -0.149018,-0.1833061 -0.285335,-0.3953908 -0.302927,-0.4712967 -0.01759,-0.075906 -0.04301,-0.170766 -0.05648,-0.2107989 -0.01352,-0.040034 0.003,-0.1976641 0.03662,-0.3502931 0.109981,-0.4995105 0.602042,-0.8812841 1.135855,-0.8812841 0.355362,0 0.624513,0.1083841 0.899575,0.362256 l 0.220985,0.2039588 0.402932,-0.1784553 c 0.527792,-0.2337537 1.090576,-0.3667333 2.077547,-0.4908978 1.048243,-0.1318731 1.010944,-0.1336173 1.010944,0.047296 0,0.4388676 -0.228347,1.7418928 -0.409319,2.33571 -0.02734,0.089712 0.0036,0.1160425 0.202081,0.1720045 1.185092,0.3341348 2.089298,1.4385455 2.356049,2.8777102 0.115118,0.621092 0.07604,1.774581 -0.08024,2.368729 -0.569944,2.166743 -2.14994,3.933698 -3.621288,4.04979 -0.447497,0.03531 -1.157035,-0.05021 -1.613303,-0.194452 -0.31661,-0.100085 -0.318851,-0.100085 -0.651044,0.0026 -0.577544,0.178421 -1.364043,0.252265 -1.823086,0.171168 z m 1.728551,-0.292662 c 0.37758,-0.115595 0.479261,-0.129485 0.592379,-0.08089 0.54248,0.233036 1.649154,0.324733 2.167525,0.179596 0.602759,-0.168764 1.402963,-0.80204 1.980336,-1.567226 1.229799,-1.629833 1.595522,-3.830896 0.912747,-5.4932593 C 35.211825,9.0832573 34.412929,8.3323351 33.567731,8.0936354 33.189697,7.986865 33.202539,8.0455714 33.400983,7.331429 c 0.06255,-0.2250669 0.15907,-0.7372215 0.214508,-1.138122 0.09,-0.6508563 0.09181,-0.7289099 0.01688,-0.7289099 -0.04615,0 -0.390135,0.036986 -0.764399,0.082194 -0.881184,0.1064374 -1.590697,0.2774877 -2.089744,0.5037956 -0.219867,0.099701 -0.435478,0.1812817 -0.479138,0.1812817 -0.04366,0 -0.119686,-0.058002 -0.168956,-0.1288942 C 30.001096,5.9171076 29.641721,5.685919 29.421618,5.6469889 28.801892,5.5373754 28.1302,6.1494654 28.215125,6.7464254 c 0.02905,0.2041777 0.118079,0.3496157 0.499036,0.815183 0.307155,0.3753766 0.290018,0.3902812 -0.4465,0.3883473 -1.018854,-0.00269 -1.653816,0.2348014 -2.322081,0.8684645 -1.369837,1.2989088 -1.542243,3.7082738 -0.417009,5.8276778 0.328482,0.618705 0.602729,0.989375 1.081768,1.462109 0.458861,0.452823 0.832417,0.71101 1.294183,0.894483 0.295196,0.117298 0.37518,0.12639 0.946365,0.107616 0.489839,-0.0161 0.721874,-0.0505 1.079739,-0.160061 z m -1.928785,-0.66306 c -0.560197,-0.245919 -1.378639,-1.113445 -1.805375,-1.913645 -0.249548,-0.467943 -0.529015,-1.297461 -0.604684,-1.794827 -0.07981,-0.524611 -0.03599,-1.49116 0.08715,-1.922432 0.490645,-1.718253 1.90474,-2.390909 3.780366,-1.7982405 0.30692,0.096986 0.56945,0.1660454 0.583398,0.1534755 0.01395,-0.012551 -0.01571,-0.2101265 -0.06591,-0.4390111 C 29.867144,8.0725272 29.554479,7.4420696 29.211009,7.0283635 29.072622,6.8616791 28.959398,6.6753464 28.959398,6.6142912 c 0,-0.1610815 0.183252,-0.2994015 0.345723,-0.2609542 0.147172,0.034822 0.502432,0.4293023 0.728693,0.8091279 0.161028,0.2703211 0.20381,0.2948551 0.254027,0.1456801 0.06716,-0.1994802 0.564214,-0.5552701 0.993497,-0.7111302 0.420579,-0.1526982 1.136147,-0.3141959 1.39215,-0.3141959 0.120953,0 0.137917,0.021618 0.137917,0.1756864 0,0.4146717 -0.321765,1.4465331 -0.531005,1.702864 -0.07201,0.088226 -0.184413,0.1258141 -0.499814,0.1671263 -0.959674,0.1257117 -1.351121,0.3515764 -1.143944,0.6600631 0.03983,0.059321 0.106964,0.049165 0.395923,-0.059897 2.244355,-0.847104 3.945634,0.2004215 4.139783,2.5489803 0.124582,1.507001 -0.624609,3.339664 -1.776172,4.344876 -0.535343,0.467304 -0.819058,0.588305 -1.37943,0.588305 -0.538964,0 -0.917612,-0.06866 -1.333969,-0.241885 l -0.311131,-0.129447 -0.267272,0.108397 c -0.444913,0.180453 -0.87241,0.262953 -1.35983,0.262428 -0.374342,-4.06e-4 -0.516976,-0.02405 -0.742704,-0.12315 z m 1.635726,-0.135072 c 0.208876,-0.06059 0.447005,-0.147259 0.529176,-0.192616 0.129635,-0.07155 0.17271,-0.07331 0.325522,-0.01324 0.648824,0.25502 0.949355,0.32481 1.423957,0.330668 0.441273,0.0055 0.514997,-0.0079 0.765769,-0.138999 0.837966,-0.43796 1.681696,-1.530242 2.080884,-2.693885 0.288329,-0.840489 0.348418,-2.013039 0.140052,-2.732876 C 34.673114,9.9172228 34.16411,9.2778684 33.526276,8.981967 33.176998,8.8199314 33.145208,8.8148522 32.486848,8.8158998 c -0.632712,0.00102 -0.712506,0.012679 -1.167414,0.1703831 -0.644712,0.223539 -0.733981,0.2410459 -0.791619,0.1552365 -0.08819,-0.1313006 -0.05698,-0.5344782 0.04833,-0.6243346 0.149647,-0.1276839 0.523928,-0.2351958 1.057179,-0.3036675 l 0.483888,-0.062139 0.12259,-0.2309491 c 0.165252,-0.311331 0.286057,-0.6704519 0.377131,-1.1210979 l 0.07578,-0.3749694 -0.257559,0.032209 c -0.6754,0.084474 -1.402103,0.3496618 -1.752075,0.6393711 -0.108458,0.089789 -0.249859,0.2658118 -0.314228,0.3911751 -0.06437,0.1253659 -0.138914,0.2279343 -0.165665,0.2279343 -0.02676,0 -0.119587,-0.1325082 -0.206291,-0.2944618 -0.227354,-0.424635 -0.652578,-0.9416075 -0.758658,-0.9223474 -0.164024,0.029776 -0.123245,0.1869052 0.122248,0.4710704 0.286291,0.3313891 0.589267,0.9006749 0.707775,1.3298938 0.112401,0.4070761 0.169388,0.9503922 0.09969,0.9503922 -0.02986,0 -0.227182,-0.067223 -0.4385,-0.1493786 -0.96283,-0.374338 -1.848533,-0.4162739 -2.521086,-0.1193595 -0.695128,0.3068742 -1.228753,1.0190072 -1.427923,1.9055925 -0.119303,0.531046 -0.07681,1.710123 0.08133,2.257086 0.404311,1.398371 1.446245,2.75188 2.379466,3.09101 0.270159,0.09818 0.902276,0.06086 1.39635,-0.08245 z M 43.526513,5.6866503 c -0.05967,-0.01191 -0.159255,-0.031697 -0.221277,-0.043991 -0.06202,-0.012294 -0.141262,-0.081323 -0.176088,-0.1533782 -0.07601,-0.157283 0.03182,-0.4871954 0.335455,-1.0263071 L 43.656917,4.1215111 43.23533,4.5083191 C 43.003456,4.7210629 42.748123,4.9106536 42.667924,4.929632 42.446535,4.9820247 42.170938,4.9140718 42.017312,4.7692344 41.880761,4.6404965 41.87884,4.6402532 41.819735,4.7443764 41.786903,4.8022119 41.688748,4.884287 41.601593,4.9267774 41.297384,5.0750956 41.010236,5.0015692 40.705321,4.6972896 40.382967,4.3756043 40.337245,4.4102813 40.549785,4.8152531 40.792291,5.2773254 40.776264,5.4151446 40.462475,5.5660755 40.218872,5.683245 39.978391,5.69869 39.85538,5.6050594 39.80917,5.5698919 39.656466,5.3343477 39.516021,5.0816258 39.168254,4.4558364 38.74811,3.8796605 38.292498,3.4037069 37.97165,3.068536 37.911259,2.976756 37.911259,2.8243178 c 0,-0.1336276 0.04331,-0.2219574 0.165111,-0.3368012 0.151844,-0.143161 0.188635,-0.1538303 0.457859,-0.132781 0.39368,0.030775 1.361061,0.4871211 2.011668,0.9489603 l 0.491617,0.3489805 0.180114,-0.4209471 c 0.202768,-0.4738942 0.388424,-0.6746653 0.659245,-0.7129167 0.380826,-0.053789 0.634825,0.2372743 0.651055,0.746062 0.0031,0.098472 0.02159,0.2320121 0.04099,0.2967659 0.03428,0.1144032 0.04365,0.1110094 0.330199,-0.1196413 0.973943,-0.7839202 2.01088,-1.1797147 2.370728,-0.9048946 0.151767,0.1159144 0.236927,0.2785263 0.236927,0.4524351 0,0.087176 -0.20515,0.462623 -0.539869,0.9880302 -0.296928,0.4660859 -0.623488,1.0208232 -0.725687,1.232749 -0.220586,0.4574145 -0.356212,0.5478062 -0.714703,0.4763314 z M 40.420489,5.4310238 C 40.62979,5.3306312 40.611644,5.2177328 40.298412,4.671544 40.048191,4.2352198 39.973333,4.0321499 40.062713,4.0321499 c 0.05189,0 0.365967,0.2318737 0.738015,0.5448632 0.256768,0.2160112 0.363685,0.2735625 0.50822,0.2735625 0.206455,0 0.378702,-0.1321458 0.431687,-0.3311841 0.04671,-0.1754546 0.100844,-0.1635136 0.34192,0.075419 0.168592,0.167093 0.243411,0.2046067 0.408082,0.2046067 0.18074,0 0.257475,-0.050369 0.740247,-0.4859404 0.487856,-0.4401534 0.702524,-0.5735658 0.702524,-0.4366046 0,0.027138 -0.144703,0.3206159 -0.321563,0.652183 -0.376965,0.7067093 -0.422097,0.8416367 -0.310683,0.9288139 0.123472,0.096615 0.456179,0.1317603 0.550273,0.05813 0.04494,-0.035168 0.235177,-0.3431354 0.422752,-0.6843818 0.187577,-0.3412465 0.50502,-0.8657955 0.705432,-1.1656645 0.233166,-0.348878 0.364384,-0.5986825 0.364384,-0.6936886 0,-0.1621445 -0.149442,-0.3452537 -0.324537,-0.3976502 -0.319504,-0.095603 -1.602608,0.5678796 -2.168212,1.1211723 -0.102836,0.1005975 -0.219404,0.1828979 -0.259047,0.1828979 -0.09548,0 -0.159681,-0.1703395 -0.203681,-0.5404193 -0.04758,-0.4001027 -0.115745,-0.5569131 -0.277666,-0.6386141 -0.299584,-0.151164 -0.557116,0.084089 -0.822212,0.7511053 -0.08455,0.2127301 -0.181336,0.3759094 -0.223156,0.3762232 -0.04062,3.035e-4 -0.187103,-0.087714 -0.325521,-0.1956087 -0.588606,-0.4587861 -1.487044,-0.9499849 -2.035997,-1.1131322 -0.29992,-0.089135 -0.308557,-0.088879 -0.454285,0.013242 -0.271894,0.1905436 -0.232988,0.3632934 0.178473,0.7924368 0.428334,0.4467427 0.931381,1.14038 1.221265,1.6839638 0.316328,0.5931718 0.363064,0.61882 0.771055,0.423132 z"
       id="path413" />
    <path
       style="fill:#ff6600;stroke-width:0.0590264"
       d="m 10.096321,19.471858 c 0,-0.01759 -0.288034,-1.088561 -0.640076,-2.379928 -0.763796,-2.801773 -1.044015,-3.934013 -0.999911,-4.040187 0.01795,-0.04321 0.221567,-0.122156 0.45248,-0.175429 0.588872,-0.135856 0.902231,-0.318552 1.058782,-0.617296 0.163019,-0.311086 0.163019,-0.562414 0,-0.8735 C 9.810986,11.086661 9.586506,10.959765 8.622405,10.625096 8.233967,10.490257 7.893752,10.353427 7.866374,10.321029 7.783504,10.22297 7.868974,8.7605416 7.979071,8.3924018 8.175905,7.7343108 8.491169,7.3383792 8.902308,7.232932 9.035468,7.19878 9.623869,7.170695 10.209867,7.17052 c 0.857289,-2.545e-4 1.106584,0.017717 1.275994,0.091979 0.339123,0.1486598 0.59914,0.5317623 0.360913,0.5317623 -0.139259,0 -0.591413,0.4012973 -0.68511,0.608052 -0.0455,0.1004072 -0.08273,0.2735523 -0.08273,0.3847664 0,0.4524295 0.270462,0.7518346 0.964933,1.0681927 0.224485,0.1022615 0.385963,0.2123766 0.385693,0.2630146 -9.92e-4,0.186342 -0.136718,0.889168 -0.475717,2.463403 l -0.352897,1.638775 -0.442873,0.194236 c -0.497406,0.218152 -0.72015,0.425618 -0.818233,0.762111 -0.115492,0.396214 0.0313,0.768926 0.425634,1.080739 l 0.242479,0.191734 -0.07808,0.338735 c -0.144336,0.626167 -0.724313,2.607492 -0.779205,2.661931 -0.02989,0.02964 -0.05434,0.0395 -0.05434,0.02191 z"
       id="path2131" />
    <path
       style="fill:#008000;stroke-width:0.0590264"
       d="M 7.906843,5.708474 C 7.867946,5.6855495 7.670736,5.4079644 7.468599,5.0916179 7.043464,4.4262757 6.783877,4.0925741 6.171981,3.424803 5.687288,2.8958501 5.64658,2.7536462 5.925113,2.5624409 6.081702,2.4549468 6.088095,2.4550929 6.477831,2.5750709 6.997399,2.7350161 7.782827,3.1271281 8.47992,3.5745805 8.789992,3.77361 9.08731,3.9364528 9.140627,3.9364528 c 0.06176,0 0.184093,-0.1742679 0.337099,-0.4802063 C 9.738565,2.9346918 9.95672,2.688338 10.157735,2.688338 c 0.211603,0 0.407936,0.2333556 0.456457,0.5425301 0.08631,0.5499507 0.165439,0.7623171 0.284057,0.7623171 0.06149,0 0.244752,-0.1065545 0.407248,-0.2367881 0.661759,-0.5303689 1.842489,-1.1211886 2.270347,-1.1360476 0.174414,-0.00606 0.256711,0.026714 0.368455,0.1467233 0.07913,0.084987 0.143881,0.1879444 0.143881,0.2287936 0,0.040849 -0.272553,0.4925762 -0.605672,1.003838 -0.33312,0.5112618 -0.721242,1.1146564 -0.862494,1.3408773 -0.242152,0.3878162 -0.269176,0.4113105 -0.473097,0.4113105 -0.243906,0 -0.453852,-0.084779 -0.453852,-0.1832727 0,-0.036199 0.181605,-0.3950861 0.403567,-0.797528 0.580006,-1.0516143 0.505465,-1.1085219 -0.450875,-0.3442153 -0.294865,0.2356561 -0.596261,0.4547222 -0.669769,0.4868135 -0.190265,0.083064 -0.383574,0.02208 -0.684657,-0.2159942 C 10.147068,4.5836235 10.014119,4.5040709 9.995889,4.5209122 9.977659,4.5377532 9.916799,4.6362497 9.860646,4.7397934 9.801756,4.8483789 9.685173,4.9515719 9.585173,4.9836224 9.375433,5.0508454 9.226448,4.9790524 8.494029,4.4578525 7.830059,3.9853593 7.774515,4.0435928 8.184003,4.7828898 8.35757,5.09625 8.499579,5.4035185 8.499579,5.4657083 c 0,0.1774543 -0.415089,0.3474616 -0.592736,0.2427657 z"
       id="path2398" />
  </g>
</svg>
