<?xml version="1.0" encoding="UTF-8" standalone="no"?>
<!-- Created with Inkscape (http://www.inkscape.org/) -->

<svg
   width="2cm"
   height="2cm"
   viewBox="0 0 20 20"
   version="1.1"
   id="svg5"
   sodipodi:docname="ikonajabukamrkva.svg"
   inkscape:version="1.1.2 (0a00cf5339, 2022-02-04)"
   xmlns:inkscape="http://www.inkscape.org/namespaces/inkscape"
   xmlns:sodipodi="http://sodipodi.sourceforge.net/DTD/sodipodi-0.dtd"
   xmlns="http://www.w3.org/2000/svg"
   xmlns:svg="http://www.w3.org/2000/svg">
  <sodipodi:namedview
     id="namedview7"
     pagecolor="#505050"
     bordercolor="#ffffff"
     borderopacity="1"
     inkscape:pageshadow="0"
     inkscape:pageopacity="0"
     inkscape:pagecheckerboard="1"
     inkscape:document-units="mm"
     showgrid="false"
     width="209mm"
     units="cm"
     inkscape:zoom="2.7868023"
     inkscape:cx="67.640248"
     inkscape:cy="31.039159"
     inkscape:window-width="966"
     inkscape:window-height="730"
     inkscape:window-x="0"
     inkscape:window-y="20"
     inkscape:window-maximized="0"
     inkscape:current-layer="layer1" />
  <defs
     id="defs2" />
  <g
     inkscape:label="Layer 1"
     inkscape:groupmode="layer"
     id="layer1">
    <ellipse
       style="fill:#ff0000;fill-rule:evenodd;stroke-width:0.213373"
       id="path477"
       cx="8.7849894"
       cy="12.389547"
       rx="3.1840603"
       ry="3.9192085" />
    <ellipse
       style="fill:#ff0000;fill-rule:evenodd;stroke-width:0.213373"
       id="ellipse561"
       cx="5.6080832"
       cy="12.32059"
       rx="3.1840603"
       ry="3.9192085" />
    <path
       style="fill:#008000;stroke:#000000;stroke-width:0.233204px;stroke-linecap:butt;stroke-linejoin:miter;stroke-opacity:1"
       d="m 9.2434088,6.5765213 c -0.26393,0.083773 -0.865278,0.1458185 -0.67438,0.1689576 5.1550002,0.624845 -0.237175,1.5245624 -1.552858,2.3523353"
       id="path631"
       sodipodi:nodetypes="csc" />
    <path
       style="fill:#ff6600;stroke-width:0.0590264"
       d="m 14.323869,18.605925 c 0,-0.01759 -0.288034,-1.088561 -0.640076,-2.379928 -0.763796,-2.801773 -1.044015,-3.934013 -0.999911,-4.040187 0.01795,-0.04321 0.221567,-0.122156 0.45248,-0.175429 0.588872,-0.135856 0.902231,-0.318552 1.058782,-0.617296 0.163019,-0.311086 0.163019,-0.562414 0,-0.8735 -0.15661,-0.298857 -0.38109,-0.425753 -1.345191,-0.7604224 -0.388438,-0.134839 -0.728653,-0.271669 -0.756031,-0.304067 -0.08287,-0.09806 0.0026,-1.5604871 0.112697,-1.9286269 0.196834,-0.658091 0.512098,-1.0540226 0.923237,-1.1594698 0.13316,-0.034152 0.721561,-0.062237 1.307559,-0.062412 0.857289,-2.545e-4 1.106584,0.017717 1.275994,0.091979 0.339123,0.1486598 0.59914,0.5317623 0.360913,0.5317623 -0.139259,0 -0.591413,0.4012973 -0.68511,0.608052 -0.0455,0.1004072 -0.08273,0.2735523 -0.08273,0.3847664 0,0.4524295 0.270462,0.7518346 0.964933,1.0681927 0.224485,0.1022615 0.385963,0.2123763 0.385693,0.2630143 -9.92e-4,0.186342 -0.136718,0.8891684 -0.475717,2.4634034 l -0.352897,1.638775 -0.442873,0.194236 c -0.497406,0.218152 -0.72015,0.425618 -0.818233,0.762111 -0.115492,0.396214 0.0313,0.768926 0.425634,1.080739 l 0.242479,0.191734 -0.07808,0.338735 c -0.144336,0.626167 -0.724313,2.607492 -0.779205,2.661931 -0.02989,0.02964 -0.05434,0.0395 -0.05434,0.02191 z"
       id="path2131" />
    <path
       style="fill:#008000;stroke-width:0.0590264"
       d="M 12.134391,4.8425409 C 12.095494,4.8196164 11.898284,4.5420313 11.696147,4.2256848 11.271012,3.5603426 11.011425,3.226641 10.399529,2.5588699 9.9148358,2.029917 9.8741278,1.8877131 10.152661,1.6965078 c 0.156589,-0.1074941 0.162982,-0.107348 0.552718,0.01263 0.519568,0.1599452 1.304996,0.5520572 2.002089,0.9995096 0.310072,0.1990295 0.60739,0.3618723 0.660707,0.3618723 0.06176,0 0.184093,-0.1742679 0.337099,-0.4802063 0.260839,-0.5215547 0.478994,-0.7679085 0.680009,-0.7679085 0.211603,0 0.407936,0.2333556 0.456457,0.5425301 0.08631,0.5499507 0.165439,0.7623171 0.284057,0.7623171 0.06149,0 0.244752,-0.1065545 0.407248,-0.2367881 0.661759,-0.5303689 1.842489,-1.1211886 2.270347,-1.1360476 0.174414,-0.00606 0.256711,0.026714 0.368455,0.1467233 0.07913,0.084987 0.143881,0.1879444 0.143881,0.2287936 0,0.040849 -0.272553,0.4925762 -0.605672,1.003838 -0.33312,0.5112618 -0.721242,1.1146564 -0.862494,1.3408773 -0.242152,0.3878162 -0.269176,0.4113105 -0.473097,0.4113105 -0.243906,0 -0.453852,-0.084779 -0.453852,-0.1832727 0,-0.036199 0.181605,-0.3950861 0.403567,-0.797528 0.580006,-1.0516143 0.505465,-1.1085219 -0.450875,-0.3442153 -0.294865,0.2356561 -0.596261,0.4547222 -0.669769,0.4868135 -0.190265,0.083064 -0.383574,0.02208 -0.684657,-0.2159942 -0.144263,-0.114072 -0.277212,-0.1936246 -0.295442,-0.1767833 -0.01823,0.016841 -0.07909,0.1153375 -0.135243,0.2188812 -0.05889,0.1085855 -0.175473,0.2117785 -0.275473,0.243829 -0.20974,0.067223 -0.358725,-0.00457 -1.091144,-0.5257699 -0.66397,-0.4724932 -0.719514,-0.4142597 -0.310026,0.3250373 0.173567,0.3133602 0.315576,0.6206287 0.315576,0.6828185 0,0.1774543 -0.415089,0.3474616 -0.592736,0.2427657 z"
       id="path2398" />
  </g>
</svg>
