<?xml version="1.0" encoding="UTF-8" standalone="no"?>
<!-- Created with Inkscape (http://www.inkscape.org/) -->

<svg
   width="2cm"
   height="2cm"
   viewBox="0 0 20 20"
   version="1.1"
   id="svg5"
   inkscape:version="1.1.2 (0a00cf5339, 2022-02-04)"
   sodipodi:docname="ikonaaronija.svg"
   xmlns:inkscape="http://www.inkscape.org/namespaces/inkscape"
   xmlns:sodipodi="http://sodipodi.sourceforge.net/DTD/sodipodi-0.dtd"
   xmlns="http://www.w3.org/2000/svg"
   xmlns:svg="http://www.w3.org/2000/svg">
  <sodipodi:namedview
     id="namedview7"
     pagecolor="#505050"
     bordercolor="#ffffff"
     borderopacity="1"
     inkscape:pageshadow="0"
     inkscape:pageopacity="0"
     inkscape:pagecheckerboard="1"
     inkscape:document-units="mm"
     showgrid="false"
     units="cm"
     inkscape:zoom="3.6708241"
     inkscape:cx="48.081846"
     inkscape:cy="22.746936"
     inkscape:window-width="1218"
     inkscape:window-height="730"
     inkscape:window-x="0"
     inkscape:window-y="20"
     inkscape:window-maximized="0"
     inkscape:current-layer="layer1" />
  <defs
     id="defs2" />
  <g
     inkscape:label="Layer 1"
     inkscape:groupmode="layer"
     id="layer1">
    <path
       style="fill:#000000;stroke-width:0.0251564"
       d="m 1.8124274,-1.4085462 c -0.248804,-0.09425 -0.393653,-0.260153 -0.477238,-0.546589 -0.03696,-0.126653 -0.04544,-0.205306 -0.03383,-0.313888 l 0.01548,-0.144886 -0.109155,-0.09467 c -0.06004,-0.05207 -0.1230508,-0.130185 -0.1400354,-0.173589 -0.041744,-0.106662 -0.082218,-0.09925 -0.13504476,0.02475 -0.086131,0.202164 -0.2831604,0.362193 -0.4459402,0.362193 -0.039248,0 -0.104934,0.03159 -0.153609,0.07387 -0.1681858,0.146104 -0.2393588,0.171794 -0.4762686,0.171899 -0.1960347,7.8e-5 -0.2325343,-0.0077 -0.3342417,-0.07094 -0.089858,-0.05592 -0.1302169,-0.105023 -0.1895003,-0.230595 -0.04143,-0.08775 -0.075327,-0.175162 -0.075327,-0.19424 0,-0.03316 -0.033051,-0.04688 -0.085582,-0.03554 -0.013449,0.0029 -0.1124782,0.02383 -0.22006624,0.04649 -0.2117333,0.04461 -0.2694817,0.08866 -0.4086471,0.311823 -0.1250763,0.200569 -0.3891282,0.282295 -0.6410666,0.198418 -0.075898,-0.02527 -0.2171281,-0.09759 -0.3138472,-0.160701 -0.158414,-0.103379 -0.186817,-0.113337 -0.2864096,-0.100412 -0.3628255,0.04709 -0.4599629,0.04765 -0.5858034,0.0033 -0.1940979,-0.068165 -0.303232,-0.194334 -0.369843,-0.427514 -0.040654,-0.142314 -0.075156,-0.211374 -0.1292982,-0.258813 -0.040617,-0.035589 -0.1379253,-0.134474 -0.2162425,-0.219752 l -0.1423946,-0.15505 -0.1972737,0.0076 c -0.174793,0.0067 -0.2094363,-8e-6 -0.3040057,-0.05867 -0.1438394,-0.08925 -0.2492851,-0.312654 -0.2716915,-0.575657 l -0.01587,-0.186311 -0.1262794,-0.06329 c -0.1579649,-0.079166 -0.2627761,-0.203774 -0.3290094,-0.391147 -0.1044852,-0.295587 -0.049002,-0.561863 0.1642912,-0.788462 0.076367,-0.08113 0.1663581,-0.166254 0.1999793,-0.189159 l 0.061129,-0.04165 -0.055994,-0.09915 c -0.1297679,-0.229785 -0.1864824,-0.386743 -0.1962201,-0.543042 -0.012834,-0.205997 0.022974,-0.314693 0.1547902,-0.469875 0.1453315,-0.171094 0.3520549,-0.268944 0.6007645,-0.284367 0.2406238,-0.01492 0.394312,0.03293 0.6448943,0.200762 l 0.1946141,0.13035 0.2210667,0.0029 0.2210667,0.003 -0.2200662,0.05622 c -0.1820249,0.0465 -0.221327,0.06539 -0.2273592,0.109286 -0.00958,0.06973 0.019794,0.09073 0.2477898,0.177011 0.1663269,0.06294 0.2034097,0.06874 0.2811959,0.04395 0.089364,-0.02848 0.517509,-0.376688 0.517509,-0.420881 0,-0.01281 -0.03521,-0.02328 -0.078246,-0.02328 -0.1101297,0 -0.062384,-0.03505 0.1393752,-0.102329 0.2314016,-0.07716 0.5140379,-0.229332 0.7997349,-0.430582 0.2249933,-0.15849 0.2809129,-0.208285 0.2594327,-0.231021 -0.00517,-0.0055 -0.086036,0.0019 -0.1797242,0.0165 -0.1438799,0.02235 -0.2040606,0.01845 -0.3874069,-0.02507 -0.119386,-0.02834 -0.2303815,-0.04611 -0.2466564,-0.03951 -0.016275,0.0066 -0.061639,0.08323 -0.1008076,0.17024 -0.090703,0.201511 -0.2367544,0.361662 -0.3674755,0.40295 -0.136414,0.04309 -0.3966904,0.04009 -0.5200712,-0.006 -0.159911,-0.05972 -0.3137322,-0.186366 -0.387348,-0.318919 -0.058269,-0.104922 -0.067659,-0.149434 -0.066699,-0.316219 9.191e-4,-0.158685 0.013312,-0.219561 0.067933,-0.333568 0.036748,-0.0767 0.062106,-0.144445 0.056348,-0.150539 -0.00576,-0.0061 -0.1568121,0.0014 -0.335678,0.01652 -0.1788656,0.01518 -0.5293231,0.02858 -0.7787938,0.02979 -0.249471,0.0012 -0.5189945,0.0108 -0.5989412,0.02133 -0.1727662,0.02275 -0.2580973,0.0096 -0.2580973,-0.03972 0,-0.01982 0.048939,-0.132023 0.1087541,-0.2493242 0.059816,-0.1172128 0.1375146,-0.3238289 0.1726645,-0.4590582 0.1399503,-0.5385085 0.3750142,-1.2103274 0.5593631,-1.5987634 0.3236179,-0.681887 0.8103853,-1.049416 1.4638028,-1.10523 0.1176743,-0.01006 0.2139532,-0.02804 0.2139532,-0.03998 0,-0.02269 -0.138869,-0.08134 -0.4279065,-0.180737 -0.09414,-0.03238 -0.2149218,-0.08214 -0.2684053,-0.110581 -0.3007064,-0.159879 -0.80186,-0.652799 -1.0190217,-1.002228 -0.072069,-0.115965 -0.072085,-0.116077 -0.00377,-0.02623 0.4659137,0.612799 0.8989033,0.963649 1.4379094,1.16513 0.1613819,0.06032 0.3649431,0.125499 0.4523584,0.144831 0.216345,0.04784 0.6328597,0.04861 0.8576261,0.0015 0.4794449,-0.100342 0.8598722,-0.439149 0.9628149,-0.857478 0.053788,-0.218579 0.048484,-0.322918 -0.021092,-0.414877 -0.055266,-0.07305 -0.063416,-0.07579 -0.1376204,-0.04624 -0.064837,0.02582 -0.087967,0.02466 -0.1299623,-0.0065 -0.071636,-0.05311 -0.4005213,-0.05055 -0.5296167,0.0041 -0.092707,0.03927 -0.1022514,0.03905 -0.1464167,-0.0033 -0.051945,-0.04976 -0.3536724,-0.09539 -0.4156003,-0.06286 -0.020172,0.0106 -0.084244,0.03273 -0.1423794,0.04917 -0.082549,0.02336 -0.1137793,0.02281 -0.1425787,-0.0025 -0.05359,-0.04707 -0.2480392,-0.07717 -0.5929906,-0.09177 -0.2432515,-0.0103 -0.3158983,-0.02237 -0.3667774,-0.06095 -0.073099,-0.05543 -0.4136155,-0.144675 -0.6496962,-0.170276 -0.10745,-0.01165 -0.1715314,-0.03189 -0.1911488,-0.06035 -0.031301,-0.04542 -0.2952022,-0.154439 -0.4244447,-0.175339 -0.1044884,-0.0169 -0.1267659,0.05651 -0.055792,0.183832 0.028655,0.05141 0.046476,0.09347 0.039601,0.09347 -0.013309,0 -0.2368474,-0.401907 -0.2368474,-0.425834 0,-0.03332 0.073211,-0.0077 0.2567055,0.08988 0.1556299,0.08275 0.3206992,0.135305 0.8069476,0.256941 0.9185007,0.229763 0.9700166,0.237541 1.6749487,0.252882 0.641546,0.01396 1.1131432,-0.01246 1.51076034,-0.08465 0.8374484,-0.152031 1.2306272,-0.392602 1.6987876,-1.039416 0.33592436,-0.464116 0.94605146,-1.491244 1.08227946,-1.821981 0.06181,-0.150078 0.255334,-0.205092 0.354016,-0.100641 0.06196,0.06559 0.06353,0.204516 0.0052,0.465862 -0.04748,0.212847 -0.04984,0.186415 0.07015,0.784307 0.07331,0.365242 0.118764,0.527424 0.245599,0.876199 0.09391,0.258244 0.107313,0.268788 0.254199,0.200016 0.174328,-0.08162 0.441194,-0.06107 0.655234,0.05046 0.285995,0.149025 0.616197,0.522628 0.79413,0.898508 0.07954,0.168019 0.395824,1.055449 0.569633,1.59826 0.08426,0.263139 0.09945,0.335836 0.07368,0.352695 -0.01785,0.01168 -0.0505,0.01688 -0.07254,0.01154 -0.02205,-0.0053 -0.265654,-0.03332 -0.541347,-0.0622 -0.574412,-0.06012 -0.832184,-0.11761 -1.087511,-0.242475 -0.225569,-0.110311 -0.363681,-0.210436 -0.564344,-0.409119 -0.086669,-0.08581 -0.157571,-0.144894 -0.157571,-0.131299 0,0.04095 0.235393,0.442389 0.382299,0.651965 0.185155,0.264139 0.809146,0.91599 1.170391,1.2226447 0.161381,0.1369941 0.513487,0.4190182 0.782458,0.6267186 0.881495,0.6806974 0.990712,0.7085584 1.723851,0.4397271 0.287287,-0.1053437 0.357055,-0.1213444 0.53794,-0.12337 0.162963,-0.00182 0.231867,0.00942 0.319116,0.05209 0.242043,0.1183849 0.382746,0.3187336 0.439938,0.6264324 0.05779,0.310917 -0.01733,0.571674 -0.242281,0.841029 -0.06904,0.08268 -0.125425,0.152557 -0.12528,0.155287 1.53e-4,0.0027 0.01665,0.06214 0.03668,0.132014 0.04537,0.158284 0.04687,0.378829 0.0034,0.488461 -0.04522,0.113904 -0.237133,0.294885 -0.392538,0.37019 -0.192808,0.09343 -0.317251,0.103242 -0.496677,0.03916 -0.08363,-0.02987 -0.15637,-0.05431 -0.161646,-0.05431 -0.0052,0 -0.05556,0.07522 -0.111727,0.167162 -0.131975,0.215998 -0.289696,0.381635 -0.436015,0.4579 -0.09546,0.04976 -0.158805,0.06141 -0.348925,0.06419 l -0.232292,0.0033 -0.03831,0.151891 c -0.04362,0.172966 -0.104051,0.307237 -0.175481,0.389975 -0.07902,0.09153 -0.0416,0.138976 0.09675,0.122664 0.32721,-0.03858 0.303879,-0.02812 0.478638,-0.214721 0.284342,-0.303626 0.531888,-0.383129 0.784924,-0.252094 0.225102,0.116572 0.332818,0.323921 0.332818,0.640666 0,0.131761 -0.01585,0.21857 -0.06037,0.330518 -0.05326,0.133945 -0.05995,0.18643 -0.05683,0.445673 0.0031,0.253081 -0.004,0.3118 -0.05097,0.423253 -0.118075,0.28027 -0.274987,0.380206 -0.622134,0.396238 l -0.240141,0.01109 -0.09896,0.132792 c -0.198221,0.265989 -0.510222,0.429152 -0.749633,0.39203 -0.163695,-0.02538 -0.303179,-0.09722 -0.371909,-0.191548 -0.161592,-0.221775 -0.16257,-0.22271 -0.199308,-0.190437 -0.02701,0.02373 -0.03276,0.08032 -0.02488,0.245032 0.01411,0.295196 -0.04508,0.460931 -0.227781,0.63767 -0.171855,0.166248 -0.321919,0.221303 -0.558441,0.204882 -0.298648,-0.02073 -0.541093,-0.198955 -0.638716,-0.469521 -0.0567,-0.157153 -0.04013,-0.472826 0.03416,-0.650585 0.02828,-0.06769 0.05143,-0.127662 0.05143,-0.133283 0,-0.0237 -0.233271,-0.164369 -0.272582,-0.164369 -0.05517,0 -0.191384,0.208846 -0.208337,0.319421 -0.0095,0.06201 0.01165,0.14767 0.07811,0.316316 0.14633,0.371312 0.142738,0.692244 -0.01061,0.947887 -0.136366,0.22733 -0.463647,0.333446 -0.724101,0.234778 z m 0.293933,-1.186469 c 0,-0.03174 -0.01981,-0.05259 -0.05502,-0.05787 -0.04121,-0.0062 -0.05502,0.0047 -0.05502,0.04314 0,0.05109 0.0388,0.08319 0.08558,0.07082 0.01345,-0.0035 0.02446,-0.0288 0.02446,-0.05608 z m 0.410926,-0.612856 c 0.07245,-0.153306 0.11433,-0.389551 0.114603,-0.646415 l 2.29e-4,-0.174417 -0.21566,0.01621 c -0.200807,0.01508 -0.226137,0.01122 -0.367805,-0.05607 l -0.152145,-0.07228 -0.08455,0.08674 c -0.06351,0.06514 -0.08457,0.108465 -0.08457,0.173952 0,0.129264 0.03793,0.182301 0.153238,0.214264 0.05693,0.01578 0.144553,0.05695 0.194723,0.0915 0.106035,0.07301 0.228985,0.28549 0.252568,0.436486 0.009,0.05778 0.02173,0.114551 0.02825,0.126154 0.02011,0.03585 0.09406,-0.05415 0.161161,-0.196127 z m 1.03937,0.129365 c 0.0097,-0.05349 -0.06085,-0.08953 -0.09811,-0.0501 -0.03726,0.03943 -0.0033,0.114146 0.04733,0.103846 0.02343,-0.0048 0.04628,-0.02897 0.05079,-0.05375 z m -6.21374,-0.164901 c 0.016338,-0.04507 -0.015494,-0.11677 -0.058584,-0.131974 -0.014288,-0.0051 -0.04374,0.0096 -0.065447,0.0326 -0.029932,0.03168 -0.033364,0.05384 -0.014204,0.09174 0.030819,0.06095 0.1171742,0.06571 0.1382349,0.0077 z m 5.859933,-0.05086 0.114903,-0.04143 -0.01509,-0.120417 c -0.0083,-0.06623 -0.003,-0.189759 0.01182,-0.274508 l 0.02691,-0.154092 -0.09592,-0.104621 c -0.05275,-0.05754 -0.121697,-0.162854 -0.153194,-0.234028 -0.07282,-0.16455 -0.136484,-0.180932 -0.225116,-0.05793 -0.09111,0.126431 -0.137276,0.286774 -0.137276,0.476769 0,0.228816 0.04183,0.384954 0.127386,0.475515 0.08394,0.08885 0.171245,0.09764 0.345582,0.03476 z m -1.30433,-0.08519 c 0,-0.05623 -0.07003,-0.09428 -0.105143,-0.05712 -0.03601,0.03811 -4.61e-4,0.106113 0.05547,0.106113 0.03243,0 0.04968,-0.01701 0.04968,-0.04899 z m -0.27386,-0.292646 c 0.0659,-0.06974 0.01092,-0.2538 -0.06164,-0.206336 -0.03131,0.02048 -0.08018,0.142528 -0.08018,0.200256 0,0.04537 0.100629,0.04968 0.14182,0.0061 z m -2.60184946,-0.05306 c 0.036841,-0.0622 -0.00958,-0.135877 -0.085625,-0.135877 -0.060797,0 -0.090167,0.07718 -0.060507,0.158986 0.018251,0.05034 0.1113501,0.03562 0.14613144,-0.02311 z m -1.66357374,-0.116471 c 0.00663,-0.02492 0.019737,-0.08606 0.029134,-0.135876 0.0094,-0.04982 0.048601,-0.15695 0.08712,-0.238062 0.038518,-0.08112 0.060344,-0.153816 0.0485,-0.161564 -0.025228,-0.0165 -0.3009338,0.107907 -0.3230969,0.145794 -0.0083,0.01421 0.00544,0.08307 0.030564,0.153046 0.025118,0.06998 0.04567,0.162037 0.04567,0.204589 0,0.08544 0.061518,0.109477 0.082108,0.03208 z m -0.4384059,-0.0989 c 0.090755,-0.09606 0.00803,-0.244021 -0.1364325,-0.244021 -0.1485374,0 -0.1898714,0.15169 -0.063548,0.233214 0.096005,0.06196 0.1489531,0.06482 0.1999803,0.01081 z m 6.9705111,-0.0632 c 0,-0.04707 -0.01481,-0.06657 -0.05513,-0.07264 -0.06653,-0.01003 -0.09817,0.05664 -0.05378,0.11325 0.04582,0.05843 0.108905,0.03489 0.108905,-0.04062 z m 1.173687,0 c 0,-0.04707 -0.01481,-0.06657 -0.05513,-0.07264 -0.06652,-0.01003 -0.09817,0.05664 -0.05378,0.11325 0.04582,0.05843 0.108904,0.03489 0.108904,-0.04062 z m -6.7609245,-0.06341 c 0,-0.03786 -0.064137,-0.117402 -0.094663,-0.117402 -0.028349,0 -0.076499,0.05911 -0.076499,0.09391 0,0.01749 0.01727,0.05007 0.038375,0.07242 0.043929,0.0465 0.1327868,0.01375 0.132787,-0.04893 z m 0.92978444,0.01847 c 0.013122,-0.03915 0.035453,-0.09241 0.049626,-0.118364 0.014173,-0.02596 0.049111,-0.09584 0.077642,-0.155288 0.02853,-0.05945 0.071946,-0.139011 0.09648,-0.176795 0.056748,-0.0874 0.055655,-0.161841 -0.00443,-0.301989 -0.071785,-0.167427 -0.1482185,-0.272014 -0.1767346,-0.241832 -0.031761,0.03362 -0.2602947,0.939985 -0.2465621,0.977863 0.011677,0.03221 0.099956,0.08307 0.1489558,0.08583 0.017144,9.12e-4 0.041906,-0.03028 0.055028,-0.06942 z m 5.34130806,-0.05731 c 0.02391,-0.02795 0.09438,-0.07058 0.156615,-0.09473 0.183183,-0.07106 0.190707,-0.08724 0.11187,-0.240561 -0.09756,-0.189718 -0.109747,-0.196797 -0.274653,-0.159461 -0.07686,0.01741 -0.156726,0.03665 -0.177478,0.04278 -0.03647,0.01078 -0.09675,0.193696 -0.09675,0.293609 0,0.04874 0.159331,0.206673 0.210163,0.208321 0.01473,4.88e-4 0.04633,-0.02201 0.07024,-0.04997 z m -5.53816856,-0.27068 c 0.057142,-0.181746 0.1473411,-0.650935 0.1473411,-0.766418 0,-0.04219 -0.00998,-0.07672 -0.022165,-0.07672 -0.046177,0 -0.42226854,0.471568 -0.41000604,0.514092 0.00671,0.02329 0.035183,0.109031 0.063256,0.190526 0.028073,0.08149 0.051042,0.193106 0.051042,0.248028 0,0.05493 0.00736,0.107648 0.016354,0.11717 0.033135,0.03507 0.1051941,-0.07087 0.15417814,-0.226672 z m 1.022654,0.107992 c 0.026462,-0.05872 0.026462,-0.08362 -7.1e-6,-0.142346 -0.035026,-0.07772 -0.144164,-0.109814 -0.2016518,-0.05931 -0.044279,0.03889 -0.062149,0.153584 -0.035491,0.227796 0.018528,0.05158 0.036225,0.05986 0.1135128,0.05307 0.071991,-0.0063 0.09842,-0.02324 0.123637,-0.0792 z m 5.23351556,0.02343 c 0.0055,-0.03076 -0.03272,-0.08848 -0.107538,-0.162224 l -0.116141,-0.114478 0.107788,0.06261 c 0.164234,0.0954 0.253358,0.107756 0.314035,0.04353 0.08684,-0.09192 0.05128,-0.279987 -0.06338,-0.335288 -0.06297,-0.03037 -0.398149,-0.03884 -0.491304,-0.01243 -0.07767,0.02203 -0.06872,0.06129 0.03668,0.161112 0.06714,0.06358 0.07392,0.07571 0.02532,0.04529 -0.09051,-0.05665 -0.117007,-0.05227 -0.117007,0.01929 0,0.104605 0.04999,0.218651 0.115863,0.264338 0.136128,0.09441 0.281275,0.108268 0.295695,0.02824 z m 0.566515,-0.01778 c 0,-0.06104 -0.06467,-0.09638 -0.102699,-0.05612 -0.03803,0.04026 -0.0046,0.1087 0.05303,0.1087 0.03363,0 0.04968,-0.01699 0.04968,-0.05258 z m -9.2322303,-0.255123 c 0.024406,-0.0418 -0.087707,-0.28756 -0.1311816,-0.28756 -0.098326,0 -0.1301597,0.126731 -0.056102,0.223345 0.05939,0.07748 0.1594968,0.111804 0.1872844,0.06421 z m 6.4718893,-0.146296 c 0.02501,-0.08481 0.04563,-0.157116 0.04583,-0.160674 2.29e-4,-0.0035 -0.02091,-0.0065 -0.0469,-0.0065 -0.05195,0 -0.06405,0.02942 -0.08908,0.216822 -0.02395,0.179295 0.03166,0.148646 0.09014,-0.04968 z m -3.47068256,-0.05469 c 0.024593,-0.02356 0.044717,-0.07656 0.044717,-0.117786 0,-0.06106 -0.015712,-0.0819 -0.084795,-0.112455 -0.1067573,-0.04721 -0.1108186,-0.04696 -0.1108186,0.0069 0,0.05321 0.074477,0.266148 0.093091,0.266148 0.00719,0 0.033213,-0.01927 0.057807,-0.04283 z m -3.34385874,-0.102284 c 0.063862,-0.02594 0.043708,-0.06194 -0.034677,-0.06194 -0.073874,0 -0.099527,0.03627 -0.04279,0.06051 0.01681,0.0072 0.032416,0.01398 0.034677,0.0151 0.00226,0.0011 0.021518,-0.0051 0.04279,-0.01366 z m 2.4545076,-0.07251 c 0.076061,-0.04199 0.27164424,-0.27514 0.35289984,-0.420669 0.044563,-0.07982 0.054633,-0.133628 0.051277,-0.274018 -0.0023,-0.09609 0.00105,-0.174698 0.00746,-0.174698 0.0064,0 0.037618,0.06219 0.069375,0.138192 0.061612,0.14746 0.177047,0.287722 0.2596269,0.315462 0.07698,0.02587 0.077661,0.0051 0.00434,-0.132674 -0.087493,-0.164347 -0.0919,-0.3921 -0.011865,-0.613115 0.029833,-0.08238 0.05424,-0.168819 0.05424,-0.192081 0,-0.0442 -0.3058233,-0.617739 -0.3420151,-0.641415 -0.023992,-0.01569 -0.038993,0.05668 -0.064334,0.310372 l -0.018096,0.181168 -0.019005,-0.116465 c -0.010453,-0.06405 -0.017504,-0.229866 -0.015671,-0.368466 0.00184,-0.138601 -0.00432,-0.260111 -0.013691,-0.27002 -0.040324,-0.04268 -0.15888914,0.102493 -0.26499194,0.324467 -0.1247927,0.261074 -0.2659076,0.701762 -0.3989058,1.245743 -0.1286911,0.526367 -0.1170978,0.604469 0.1020036,0.687178 0.1204217,0.04546 0.1665535,0.04565 0.2473511,0.001 z m -0.6325203,-0.09169 c 0.086398,-0.06512 0.1378124,-0.201684 0.1856076,-0.493004 0.019851,-0.120995 0.057473,-0.301516 0.083605,-0.40116 0.053027,-0.202193 0.062714,-0.323514 0.02583,-0.323514 -0.044066,0 -0.2488385,0.318441 -0.3578207,0.556446 -0.1116599,0.243854 -0.2191926,0.633933 -0.1939493,0.703562 0.019583,0.05401 0.1595097,0.03094 0.2567267,-0.04234 z m 7.94851,-0.04008 c 0.03808,-0.04857 -0.0064,-0.116466 -0.07636,-0.116466 -0.08378,0 -0.05551,0.141785 0.03057,0.153245 0.0084,0.0011 0.02905,-0.01543 0.04579,-0.03678 z m -10.2691583,-0.052529 c 0.023735,-0.03027 0.024563,-0.05464 0.00352,-0.103525 -0.033384,-0.07755 -0.1144638,-0.0841 -0.1508299,-0.01218 -0.055526,0.109817 0.07286,0.210652 0.1473119,0.115698 z m 3.83833234,-0.02421 c 0,-0.04362 -0.073967,-0.09187 -0.1389901,-0.09068 -0.036597,6.42e-4 -0.032343,0.01204 0.024207,0.0647 0.07804,0.07266 0.1147829,0.08099 0.1147831,0.02598 z M -2.588387,-5.2072172 c 0,-0.06507 -0.00961,-0.07729 -0.060794,-0.07729 -0.069667,0 -0.09515,0.07085 -0.047394,0.13176 0.049117,0.06264 0.108188,0.0329 0.108188,-0.05448 z m 4.4770034,0.03581 c 0.02563,-0.03031 0.08784,-0.08288 0.138275,-0.116791 l 0.09169,-0.06167 v -0.242821 c 0,-0.402499 0.109019,-0.692488 0.298576,-0.794213 0.05768,-0.03095 0.113626,-0.06928 0.124319,-0.08516 0.04617,-0.06859 -0.0484,-0.662964 -0.105482,-0.662964 -0.01294,0 -0.07804,0.113553 -0.144624,0.252342 -0.168895,0.351992 -0.222306,0.428464 -0.546978,0.783126 -0.157305,0.171839 -0.28601,0.331045 -0.28601,0.353792 0,0.02275 0.04328,0.09105 0.09617,0.151791 0.05955,0.06839 0.110717,0.162277 0.134375,0.2466 0.0356,0.126895 0.09703,0.231085 0.136232,0.231085 0.0093,0 0.03783,-0.0248 0.06346,-0.05512 z m -3.9656672,-0.30721 c 0.060843,-0.149464 0.099619,-0.27576 0.086169,-0.280656 -0.028836,-0.0105 -0.087373,0.02848 -0.2598262,0.173034 l -0.1269052,0.106372 0.076245,0.156477 c 0.041934,0.08607 0.084671,0.14749 0.09497,0.136503 0.010298,-0.01098 0.068505,-0.142266 0.1293474,-0.29173 z m 3.04800934,0.02497 c 0.092608,-0.05245 0.032545,-0.180258 -0.084722,-0.180258 -0.020579,0 -0.04907,0.02302 -0.063294,0.05117 -0.020552,0.04064 -0.015695,0.06193 0.023589,0.103524 0.057149,0.0605 0.061272,0.06135 0.1244272,0.02556 z m -3.21646054,-0.25921 c 0.1285133,-0.09242 0.2410341,-0.22407 0.5408335,-0.632787 0.3874216,-0.528174 0.6855033,-1.039319 0.6364012,-1.091292 -0.027228,-0.02883 -0.290519,0.120735 -0.625229,0.355143 -0.321419,0.225099 -0.5370334,0.450874 -0.655119,0.685988 -0.1229617,0.244821 -0.2211836,0.693981 -0.1706757,0.780481 0.023215,0.03976 0.1414431,-0.0023 0.273789,-0.09754 z m -0.4092657,-0.0052 c 0.013853,-0.01779 0.048639,-0.13709 0.077303,-0.265105 0.028662,-0.128013 0.1060262,-0.35221 0.1719187,-0.498214 0.065953,-0.14614 0.1067409,-0.264611 0.090741,-0.263568 -0.068255,0.0045 -0.6905637,0.42906 -0.7247292,0.494497 -0.030881,0.05915 -0.031704,0.09715 -0.0056,0.258324 0.043535,0.268716 0.072357,0.306416 0.2342433,0.306416 0.075007,0 0.1416854,-0.01382 0.1561156,-0.03235 z m 4.0340761,-0.21747 c 0.5629,-0.425159 0.826956,-0.865115 0.855862,-1.42599 0.0075,-0.145084 0.0031,-0.239402 -0.01117,-0.239402 -0.01294,0 -0.0502,0.03063 -0.0828,0.06806 -0.123354,0.141626 -0.829944,0.786021 -0.861887,0.786021 -0.05475,0 -0.100586,-0.07604 -0.2183928,-0.362338 -0.15189066,-0.369096 -0.31289846,-0.90985 -0.42384536,-1.4234654 -0.0739511,-0.3423493 -0.0925815,-0.4813504 -0.0939385,-0.7008908 -0.001654,-0.2670651 6.111e-4,-0.2786278 0.0906283,-0.4666549 0.1813014,-0.3786287 0.49872786,-0.7147437 0.84299436,-0.8926277 0.151886,-0.07848 0.175652,-0.09971 0.165753,-0.148026 -0.07596,-0.370789 -0.143632,-0.638738 -0.161309,-0.638738 -0.012,0 -0.04292,0.04367 -0.0687,0.09705 -0.02578,0.05338 -0.104402,0.172757 -0.174705,0.265282 -0.37964186,0.499644 -1.44280996,2.3874648 -1.69805936,3.0151668 -0.1834931,0.451241 -0.2206553,0.595005 -0.2207784,0.854081 -7.64e-5,0.216159 0.00591,0.244674 0.083434,0.396018 0.093515,0.182552 0.1979107,0.289834 0.2820339,0.289834 0.030899,0 0.1032418,-0.01758 0.1607631,-0.03905 0.264259,-0.09869 0.5108456,-0.06807 0.7387576,0.09171 0.1420538,0.09959 0.2857042,0.302191 0.3162309,0.445994 0.028036,0.132086 0.048904,0.147479 0.20054636,0.147984 0.1029519,3.36e-4 0.1408309,-0.01597 0.2785779,-0.120017 z m 3.057308,-0.117694 c 0.07608,-0.08053 -0.01034,-0.240095 -0.120972,-0.223365 -0.08294,0.01255 -0.11752,0.132492 -0.05819,0.201877 0.05014,0.05864 0.134509,0.06876 0.179168,0.02149 z m -1.759347,-0.01773 c 0.04949,-0.0332 0.02323,-0.118263 -0.03944,-0.127725 -0.06571,-0.0099 -0.09797,0.05658 -0.05441,0.112139 0.03458,0.0441 0.048,0.04634 0.09384,0.01559 z m -2.55366666,-0.113985 c 0.032521,-0.05457 -0.031246,-0.131516 -0.089415,-0.107891 -0.05812,0.0236 -0.070404,0.08262 -0.026807,0.128763 0.044332,0.04692 0.079591,0.04059 0.1162209,-0.02088 z m 3.57810666,-0.173867 c 0.0034,-0.06394 0.01833,-0.182122 0.03342,-0.262641 0.02486,-0.132644 0.02239,-0.157101 -0.0263,-0.260286 -0.07412,-0.157067 -0.283128,-0.403032 -0.31421,-0.369753 -0.02568,0.02749 -0.273514,0.65187 -0.273514,0.68906 0,0.01206 0.04975,0.03518 0.110553,0.05139 0.114388,0.03049 0.29276,0.150628 0.350248,0.235906 0.05744,0.0852 0.11311,0.04632 0.1198,-0.08368 z m -7.6414136,-0.171045 c 0.025737,-0.05979 0.022486,-0.07347 -0.027685,-0.116464 -0.096724,-0.0829 -0.1981394,-0.04822 -0.1981394,0.06774 0,0.07475 0.045733,0.116466 0.1276736,0.116466 0.050685,0 0.076726,-0.01798 0.09815,-0.06774 z m 6.7123766,0.05143 c 0.07429,-0.02108 0.06929,-0.07208 -0.02181,-0.222333 -0.09155,-0.151008 -0.128476,-0.134133 -0.124368,0.05684 0.004,0.18403 0.01937,0.20147 0.14617,0.1655 z m 0.332597,-0.368023 c 0.105014,-0.247682 0.188787,-0.616573 0.203657,-0.896785 0.01089,-0.205276 2.4e-5,-0.35518 -0.05253,-0.7246768 -0.181035,-1.2728615 -0.377506,-1.936952 -0.813353,-2.749208 -0.120499,-0.22457 -0.244827,-0.457806 -0.276281,-0.518303 -0.03145,-0.0605 -0.06769,-0.109995 -0.08055,-0.109995 -0.02561,0 -0.01964,0.06356 0.05588,0.595268 0.02729,0.192168 0.04984,0.413453 0.05011,0.491744 2.3e-4,0.0783 0.0088,0.15617 0.01895,0.173067 0.01011,0.0169 0.0706,0.05437 0.13433,0.08329 0.322796,0.146456 0.555568,0.5754015 0.555568,1.0237887 0,0.1540611 -0.0584,0.4352323 -0.180509,0.8690323 -0.07522,0.2672556 -0.117851,0.3839888 -0.204467,0.5599798 l -0.06594,0.133973 0.05692,0.189541 c 0.08953,0.298096 0.318632,0.898945 0.385543,1.011136 0.05727,0.09603 0.06335,0.09946 0.105213,0.05936 0.02444,-0.02341 0.07279,-0.109457 0.10746,-0.191224 z m 2.427846,-0.04303 c 0.0168,-0.04632 -0.03167,-0.116136 -0.08061,-0.116136 -0.04163,0 -0.0679,0.06303 -0.04852,0.116465 0.01829,0.05047 0.110814,0.05024 0.129146,-3.37e-4 z m -3.886475,-0.241229 c 0.449972,-0.396852 0.681559,-0.686039 0.85632,-1.069301 0.115908,-0.2541921 0.130978,-0.2973165 0.211191,-0.6043599 0.140105,-0.5362915 0.150157,-0.8842672 0.03344,-1.1573997 -0.112329,-0.2628522 -0.408466,-0.5303542 -0.561576,-0.5072732 -0.06095,0.0092 -0.08411,0.08244 -0.08898,0.281551 -0.0015,0.06489 -0.01905,0.140597 -0.03879,0.168228 -0.0331,0.046318 -0.03596,0.039941 -0.03668,-0.08166 -4.63e-4,-0.07255 0.01592,-0.16733 0.03634,-0.210634 0.08409,-0.178408 -0.04442,-0.278159 -0.336007,-0.26082 -0.266285,0.01584 -0.448831,0.119868 -0.7066295,0.402705 -0.20980896,0.2301856 -0.24434426,0.2807351 -0.35811216,0.5241662 -0.059309,0.126904 -0.066418,0.1704233 -0.065525,0.4011584 0.00107,0.274044 0.06031,0.6221118 0.1740294,1.0223102 0.034382,0.120996 0.076817,0.272401 0.0943,0.336457 0.064642,0.236829 0.33222126,0.876566 0.40865626,0.977016 0.01354,0.01779 0.03922,0.03235 0.05705,0.03235 0.01784,0 0.162287,-0.114522 0.320992,-0.254493 z m -0.06427,-1.3809677 c 9.62e-4,-0.018636 0.01117,-0.057174 0.02273,-0.085635 0.01877,-0.046215 0.0212,-0.044301 0.02273,0.017876 9.62e-4,0.038305 -0.0093,0.076844 -0.02273,0.085635 -0.01344,0.00871 -0.02367,7.333e-4 -0.02273,-0.017876 z m 0.06381,-0.3056331 c 0.0079,-0.092522 0.03214,-0.203168 0.05388,-0.2458721 l 0.03952,-0.077644 0.0077,0.1121104 c 0.005,0.073248 -0.0067,0.1352677 -0.03376,0.1789309 -0.02275,0.036756 -0.05042,0.096948 -0.0615,0.1337627 -0.01232,0.040949 -0.01455,0.00152 -0.0058,-0.1012882 z m 0.194273,-0.6082097 c 0.0088,-0.042705 0.02386,-0.1279071 0.03341,-0.1893396 0.0096,-0.061435 0.03553,-0.1308962 0.05771,-0.1543628 0.03744,-0.039631 0.04031,-0.036438 0.04031,0.044959 0,0.048189 -0.01638,0.1067811 -0.03641,0.1301975 -0.02003,0.023419 -0.0532,0.088394 -0.07373,0.1443856 -0.02732,0.074535 -0.03303,0.081013 -0.02129,0.024167 z m 2.174381,2.3346695 0.157706,-0.162871 v -0.223741 c 0,-0.218187 -0.03901,-0.457265 -0.113042,-0.692816 -0.07033,-0.2237852 -0.36852,-0.7803215 -0.77638,-1.4490532 -0.167304,-0.2743113 -0.193188,-0.2657055 -0.125107,0.041592 0.130007,0.5868169 0.209127,1.1117478 0.243346,1.6145102 0.0083,0.120995 0.02687,0.284047 0.04143,0.362338 0.04757,0.256016 0.282362,0.672912 0.378972,0.672912 0.01946,0 0.106343,-0.0733 0.19308,-0.162871 z m 1.213969,-0.15566 c 0.03348,-0.03285 0.08084,-0.115033 0.10523,-0.182637 0.05597,-0.155107 0.05429,-0.156934 -0.281228,-0.30875 -0.141209,-0.06389 -0.347211,-0.157618 -0.457784,-0.208278 -0.110571,-0.05066 -0.206735,-0.08235 -0.213697,-0.07043 -0.01528,0.02617 0.18469,0.353018 0.324933,0.531082 0.226014,0.286963 0.394909,0.364217 0.522546,0.239015 z m -0.507993,0.0112 c 0.01537,-0.02633 -0.393351,-0.598515 -0.427526,-0.598515 -0.01261,0 -0.0229,0.07862 -0.02285,0.174697 1.53e-4,0.247837 0.04908,0.324771 0.249434,0.391939 0.181249,0.06077 0.183831,0.06116 0.200937,0.03187 z m 1.238413,-0.277169 c 0.04344,-0.05539 -2.55e-4,-0.127237 -0.07738,-0.127237 -0.06653,0 -0.09164,0.07193 -0.04559,0.130649 0.03835,0.04891 0.08294,0.04766 0.122984,-0.0033 z m -7.4269682,-0.105016 c 0.2642718,-0.0698 0.4042645,-0.153597 0.58947894,-0.352846 0.1857405,-0.199813 0.2146256,-0.2542 0.6560037,-1.2351873 0.236206,-0.5249813 0.8641329,-1.7146285 1.139113,-2.1581245 0.16188456,-0.261092 0.23381756,-0.405185 0.28202756,-0.564941 0.08188,-0.271312 0.547076,-3.115039 0.51512,-3.148863 -0.01996,-0.02112 -0.0501,0.02366 -0.233111,0.346283 -0.09689,0.170816 -0.22245,0.380454 -0.279012,0.465862 -0.40993566,0.619003 -0.67138036,1.004861 -0.76790996,1.133335 -0.0619226,0.08242 -0.3106473,0.332546 -0.5527201,0.555844 -0.5471229,0.504691 -1.09868884,1.091172 -1.39308764,1.481274 -0.1235389,0.163698 -0.2435988,0.314146 -0.2667995,0.334326 -0.096254,0.08373 -0.095034,0.122766 0.00958,0.306186 0.1839783,0.322578 0.2166423,0.6127875 0.097075,0.8624725 -0.2144567,0.447835 -0.6615122,0.9703459 -0.9951478,1.1631115 -0.1105559,0.06388 -0.2013333,0.1246766 -0.2017274,0.1351136 -3.974e-4,0.01043 0.052732,0.04764 0.1180565,0.08269 0.1615313,0.08664 0.2486349,0.168523 0.3579094,0.336461 0.050873,0.07818 0.1339201,0.172535 0.184549,0.209673 0.1585015,0.116263 0.4170883,0.132791 0.7406064,0.04734 z m -1.1820301,-0.07365 c 0.06324,-0.08066 -0.044049,-0.184515 -0.1140576,-0.110413 -0.029371,0.03109 -0.031359,0.05083 -0.00947,0.09412 0.032413,0.06411 0.08101,0.07051 0.1235274,0.0163 z m 8.3072953,-0.168033 c 0.06893,-0.03139 0.13052,-0.07136 0.136854,-0.08884 0.01691,-0.04665 -0.222847,-0.3700542 -0.406137,-0.5478236 -0.087435,-0.084801 -0.344473,-0.3044922 -0.571192,-0.4881976 -0.596587,-0.4833999 -1.046691,-0.8678339 -1.460088,-1.2470566 -0.423222,-0.388238 -0.423824,-0.388729 -0.446352,-0.364884 -0.03624,0.03835 0.316337,0.6988322 0.822533,1.5408509 0.406949,0.6769307 0.550879,0.8284749 1.014017,1.0676639 0.419443,0.216625 0.646194,0.248579 0.910365,0.128292 z m 0.464437,-0.162286 c 0.04874,-0.05598 0.128983,-0.2681612 0.128983,-0.3410612 0,-0.056577 -0.05964,-0.066138 -0.305897,-0.049011 -0.158316,0.010999 -0.232042,0.026191 -0.232042,0.047795 0,0.01741 0.02762,0.08396 0.06137,0.1478772 0.130745,0.247603 0.245423,0.311742 0.347588,0.194406 z m -9.7862237,-0.158653 c 0.522177,-0.1045892 0.9341481,-0.278892 1.1935129,-0.5049727 0.3410901,-0.2973148 0.5101291,-0.5253124 0.6550478,-0.8835205 0.067709,-0.1673624 0.078283,-0.2234862 0.078642,-0.4173969 3.591e-4,-0.1960657 -0.00839,-0.2424507 -0.070104,-0.3715597 -0.1423246,-0.297744 -0.3332225,-0.377371 -0.4490625,-0.187313 -0.041406,0.06794 -0.076815,0.09706 -0.1180186,0.09706 -0.080395,0 -0.3918255,0.217251 -0.426328,0.297402 -0.019939,0.04632 -0.047151,0.06494 -0.094928,0.06494 -0.059181,0 -0.2245257,0.094835 -0.423515,0.2429081 -0.036067,0.02684 -0.071315,0.042723 -0.078326,0.035306 -0.00701,-0.00739 0.026903,-0.039431 0.075367,-0.071133 0.107485,-0.070312 0.167914,-0.1623691 0.1486832,-0.2265021 -0.012466,-0.04157 -0.00301,-0.04645 0.07213,-0.03716 0.063076,0.0078 0.1110731,-0.0067 0.1773683,-0.05333 0.049991,-0.03521 0.1311805,-0.08924 0.1804228,-0.120092 0.051413,-0.0322 0.1003214,-0.08884 0.1148741,-0.133031 0.017671,-0.05365 0.041502,-0.07695 0.078724,-0.07695 0.053941,0 0.3892947,-0.328396 0.3892947,-0.381219 0,-0.01451 -0.045161,-0.09089 -0.1003582,-0.16975 -0.2789179,-0.398481 -0.9489186,-0.467957 -1.5501379,-0.160742 -0.3603419,0.18413 -0.6120556,0.460611 -0.8406323,0.923345 -0.1022493,0.206995 -0.2463998,0.5856323 -0.2889245,0.7589128 -0.016423,0.066918 -0.1877577,0.6300941 -0.2487489,0.8176301 -0.025885,0.079588 -0.087034,0.2362815 -0.1358836,0.3481927 -0.04885,0.111912 -0.083533,0.2180532 -0.077073,0.2358702 0.015763,0.04348 0.2380506,0.05112 0.9432895,0.03242 0.3823469,-0.01014 0.6482528,-0.02998 0.7946837,-0.05931 z m -0.8069096,-0.8053574 c 0.067243,-0.063433 0.2153792,-0.1825751 0.3291929,-0.2647512 0.2680862,-0.1935626 0.2698762,-0.1946802 0.2698762,-0.1686183 0,0.021867 -0.04225,0.057195 -0.3774661,0.3155772 -0.093295,0.071911 -0.1930333,0.1540264 -0.2216421,0.1824728 -0.028609,0.028461 -0.067813,0.051482 -0.087119,0.051189 -0.019306,-2.927e-4 0.019915,-0.052444 0.087157,-0.115872 z m 1.9561444,-0.4271021 c 0.00974,-0.035589 0.028726,-0.076351 0.042174,-0.090584 0.016301,-0.017252 0.018544,-0.00428 0.00673,0.038819 -0.00974,0.03559 -0.028726,0.076352 -0.042174,0.090585 -0.016301,0.017249 -0.018544,0.00425 -0.00673,-0.038822 z m -1.2348162,-0.1289106 c 0,-0.013502 0.022006,-0.037022 0.048904,-0.052257 0.026897,-0.015236 0.048904,-0.049229 0.048904,-0.07554 0,-0.047303 0.062077,-0.078687 0.157086,-0.079399 0.043732,-3.239e-4 0.043032,0.00419 -0.00992,0.063835 -0.066399,0.07481 -0.2449732,0.1793098 -0.2449733,0.1433546 z m 10.5509541,1.0998127 c 0,-0.057103 -0.07602,-0.085534 -0.115878,-0.043339 -0.0411,0.043501 -5.47e-4,0.1122522 0.06075,0.1030372 0.03607,-0.0054 0.05513,-0.02606 0.05513,-0.059696 z m -4.721815,-2.2282584 c 0.0387,-0.106738 -0.0089,-0.44848 -0.145898,-1.047794 -0.08107,-0.354628 -0.151424,-0.541785 -0.203655,-0.541785 -0.01253,0 -0.041,0.05045 -0.06324,0.112111 -0.0388,0.107533 -0.03838,0.116309 0.01011,0.214835 0.06265,0.127224 0.09049,0.289641 0.123616,0.721243 0.03377,0.439835 0.04946,0.509585 0.123675,0.549333 0.08196,0.0439 0.137605,0.04105 0.155369,-0.0079 z m 2.704542,-0.348522 c 0,-0.05457 -0.0098,-0.105629 -0.02174,-0.113452 -0.01196,-0.0079 -0.02931,-0.04636 -0.03857,-0.08564 -0.0093,-0.03928 -0.03241,-0.106357 -0.05145,-0.149061 -0.01905,-0.0427 -0.05007,-0.135877 -0.06894,-0.20705 -0.08564,-0.323002 -0.388709,-1.110748 -0.527739,-1.371709 -0.121711,-0.22845 -0.463688,-0.578669 -0.670059,-0.686203 -0.149686,-0.078 -0.189505,-0.08731 -0.379523,-0.08869 -0.262948,-0.0019 -0.344837,0.04074 -0.344837,0.179623 0,0.112755 0.05306,0.151988 0.281384,0.208034 0.09391,0.02305 0.175117,0.04654 0.180456,0.05218 0.0053,0.0056 -0.06399,0.003 -0.154044,-0.0059 -0.152811,-0.01511 -0.164658,-0.01251 -0.177343,0.03884 -0.01154,0.04674 -0.02121,0.0507 -0.06427,0.02631 -0.04238,-0.02401 -0.05844,-0.01861 -0.09813,0.03297 l -0.04745,0.06168 0.01787,-0.116466 c 0.01991,-0.129676 0.01953,-0.125133 0.01551,-0.186728 -0.0088,-0.134341 -0.276524,-0.105013 -0.380884,0.04172 -0.105499,0.148334 -0.144109,0.31515 -0.144377,0.623812 -2.29e-4,0.240562 0.0094,0.312778 0.0619,0.465862 0.09725,0.283513 0.359693,0.693353 0.562657,0.878678 0.141193,0.128921 0.273431,0.197105 0.594688,0.306628 0.334468,0.114028 0.632596,0.17262 0.896881,0.176268 0.111897,0.0015 0.269469,0.01067 0.35016,0.02027 0.193054,0.02298 0.207841,0.01573 0.207841,-0.101968 z m -1.304097,-1.051262 c -0.009,-0.0095 -0.0163,-0.02928 -0.0163,-0.044 0,-0.01622 0.01139,-0.01469 0.02893,0.0039 0.01591,0.01684 0.02325,0.03665 0.0163,0.044 -0.0069,0.0074 -0.01997,0.0056 -0.02893,-0.0039 z m -0.305535,-0.502891 c -0.01761,-0.02985 -0.02612,-0.06055 -0.01887,-0.0682 0.02139,-0.02264 0.139839,0.07071 0.124052,0.09775 -0.02404,0.04118 -0.07129,0.02792 -0.105181,-0.02954 z m -0.195117,-0.232352 c 0.0048,-0.0153 0.01921,-0.02783 0.03199,-0.02783 0.01278,0 0.02717,0.01252 0.032,0.02783 0.0048,0.0153 -0.0096,0.02782 -0.032,0.02782 -0.02242,0 -0.03681,-0.01252 -0.03199,-0.02782 z m -4.5417624,1.326268 c 0.2696665,-0.282283 0.64985104,-0.656436 0.84485414,-0.83145 0.353943,-0.317662 0.5868433,-0.564608 0.5868433,-0.622235 0,-0.02051 -0.029981,-0.02579 -0.091694,-0.01615 -0.050432,0.0078 -0.2182324,0.02705 -0.3728901,0.04261 -0.42348114,0.04258 -0.3824292,0.0137 -0.3967242,0.27907 -0.0101111,0.187739 -0.0264992,0.260202 -0.0913849,0.404103 -0.1057675,0.234572 -0.3078592,0.446733 -0.542339,0.569363 -0.1952883,0.102134 -0.5622208,0.19529 -0.7714295,0.19585 -0.06981,1.78e-4 -0.1329672,0.01068 -0.1403475,0.02332 -0.00737,0.01264 0.033233,0.06383 0.090251,0.113747 0.057018,0.04992 0.1633835,0.150221 0.2363673,0.222891 0.072984,0.07267 0.1384335,0.132125 0.1454438,0.132125 0.00701,0 0.2333829,-0.230959 0.5030496,-0.513242 z m 3.6513534,-1.718818 c 0.04489,-0.111551 0.221767,-0.299316 0.298849,-0.317236 0.136871,-0.03182 0.138989,-0.06931 0.01867,-0.330355 -0.128712,-0.279257 -0.195171,-0.467549 -0.270053,-0.765145 -0.02983,-0.118542 -0.06524,-0.217537 -0.07868,-0.21999 -0.02433,-0.0045 -0.05423,0.157878 -0.156569,0.849621 -0.02947,0.199285 -0.07509,0.446904 -0.101345,0.550265 -0.02625,0.10336 -0.04774,0.220229 -0.04774,0.259709 0,0.101522 0.08165,0.33489 0.189278,0.540996 l 0.09192,0.176023 0.01356,-0.336456 c 0.0075,-0.185051 0.02641,-0.368395 0.04211,-0.407432 z m -5.7040381,0.730947 c 0.040345,-0.01087 0.1008638,-0.01997 0.1344849,-0.02023 l 0.061129,-4.8e-4 -0.061129,0.02072 c -0.033621,0.0114 -0.094139,0.02051 -0.1344849,0.02025 l -0.073356,-4.87e-4 z m -1.259268,-0.543506 c -0.014395,-0.02847 -0.020671,-0.05177 -0.013946,-0.05177 0.00672,0 0.024004,0.02329 0.038399,0.05177 0.014394,0.02847 0.020671,0.05176 0.013946,0.05176 -0.00672,0 -0.024004,-0.02329 -0.038399,-0.05176 z"
       id="path283" />
    <ellipse
       style="fill:#800080;stroke-width:0.2;stroke-miterlimit:4;stroke-dasharray:none;stroke:#000000;stroke-opacity:1"
       id="path347"
       cx="5.9290376"
       cy="10.753674"
       rx="0.74031091"
       ry="0.6805622" />
    <ellipse
       style="fill:#800080;stroke-width:0.2;stroke-miterlimit:4;stroke-dasharray:none;stroke:#000000;stroke-opacity:1"
       id="ellipse393"
       cx="4.3299675"
       cy="11.823883"
       rx="0.74031091"
       ry="0.6805622" />
    <ellipse
       style="fill:#800080;stroke-width:0.2;stroke-miterlimit:4;stroke-dasharray:none;stroke:#000000;stroke-opacity:1"
       id="ellipse475"
       cx="4.0670514"
       cy="13.2964"
       rx="0.74031091"
       ry="0.6805622" />
    <ellipse
       style="fill:#800080;stroke-width:0.2;stroke-miterlimit:4;stroke-dasharray:none;stroke:#000000;stroke-opacity:1"
       id="ellipse477"
       cx="4.6289372"
       cy="14.266858"
       rx="0.74031091"
       ry="0.6805622" />
    <ellipse
       style="fill:#800080;stroke-width:0.2;stroke-miterlimit:4;stroke-dasharray:none;stroke:#000000;stroke-opacity:1"
       id="ellipse479"
       cx="5.6776509"
       cy="15.083768"
       rx="0.74031091"
       ry="0.6805622" />
    <ellipse
       style="fill:#800080;stroke-width:0.2;stroke-miterlimit:4;stroke-dasharray:none;stroke:#000000;stroke-opacity:1"
       id="ellipse481"
       cx="6.7916121"
       cy="15.509209"
       rx="0.74031091"
       ry="0.6805622"
       inkscape:transform-center-x="1.0551653"
       inkscape:transform-center-y="-0.62474676" />
    <ellipse
       style="fill:#800080;stroke-width:0.2;stroke-miterlimit:4;stroke-dasharray:none;stroke:#000000;stroke-opacity:1"
       id="ellipse483"
       cx="8.8685627"
       cy="15.63098"
       rx="0.74031091"
       ry="0.6805622"
       inkscape:transform-center-x="1.0551653"
       inkscape:transform-center-y="-0.62474676" />
    <ellipse
       style="fill:#800080;stroke-width:0.2;stroke-miterlimit:4;stroke-dasharray:none;stroke:#000000;stroke-opacity:1"
       id="ellipse485"
       cx="7.9020929"
       cy="14.612929"
       rx="0.74031091"
       ry="0.6805622"
       inkscape:transform-center-x="1.0551653"
       inkscape:transform-center-y="-0.62474676" />
    <ellipse
       style="fill:#800080;stroke-width:0.264583"
       id="ellipse487"
       cx="6.4934664"
       cy="13.873621"
       rx="0.74031091"
       ry="0.6805622"
       inkscape:transform-center-x="1.0551653"
       inkscape:transform-center-y="-0.62474676" />
    <ellipse
       style="fill:#800080;stroke-width:0.264583"
       id="ellipse489"
       cx="5.6516309"
       cy="12.675306"
       rx="0.74031091"
       ry="0.6805622"
       inkscape:transform-center-x="1.0551653"
       inkscape:transform-center-y="-0.62474676" />
    <ellipse
       style="fill:#800080;stroke-width:0.2;stroke-miterlimit:4;stroke-dasharray:none;stroke:#000000;stroke-opacity:1"
       id="ellipse491"
       cx="8.9339323"
       cy="12.514007"
       rx="0.74031091"
       ry="0.6805622"
       inkscape:transform-center-x="1.0551653"
       inkscape:transform-center-y="-0.62474676" />
    <ellipse
       style="fill:#800080;stroke-width:0.2;stroke-miterlimit:4;stroke-dasharray:none;stroke:#000000;stroke-opacity:1"
       id="ellipse493"
       cx="10.873664"
       cy="16.236526"
       rx="0.74031091"
       ry="0.6805622"
       inkscape:transform-center-x="1.0551653"
       inkscape:transform-center-y="-0.62474676" />
    <ellipse
       style="fill:#800080;stroke-width:0.2;stroke-miterlimit:4;stroke-dasharray:none;stroke:#000000;stroke-opacity:1"
       id="ellipse495"
       cx="12.323183"
       cy="15.673679"
       rx="0.74031091"
       ry="0.6805622"
       inkscape:transform-center-x="1.0551653"
       inkscape:transform-center-y="-0.62474676" />
    <ellipse
       style="fill:#800080;stroke-width:0.2;stroke-miterlimit:4;stroke-dasharray:none;stroke:#000000;stroke-opacity:1"
       id="ellipse497"
       cx="13.652828"
       cy="14.976521"
       rx="0.74031091"
       ry="0.6805622"
       inkscape:transform-center-x="1.0551653"
       inkscape:transform-center-y="-0.62474676" />
    <ellipse
       style="fill:#800080;stroke-width:0.2;stroke-miterlimit:4;stroke-dasharray:none;stroke:#000000;stroke-opacity:1"
       id="ellipse499"
       cx="14.755301"
       cy="14.410645"
       rx="0.74031091"
       ry="0.6805622"
       inkscape:transform-center-x="1.0551653"
       inkscape:transform-center-y="-0.62474676" />
    <ellipse
       style="fill:#800080;stroke-width:0.2;stroke-miterlimit:4;stroke-dasharray:none;stroke:#000000;stroke-opacity:1"
       id="ellipse501"
       cx="15.069606"
       cy="13.438044"
       rx="0.74031091"
       ry="0.6805622"
       inkscape:transform-center-x="1.0551653"
       inkscape:transform-center-y="-0.62474676" />
    <ellipse
       style="fill:#800080;stroke-width:0.2;stroke-miterlimit:4;stroke-dasharray:none;stroke:#000000;stroke-opacity:1"
       id="ellipse503"
       cx="15.766751"
       cy="11.562114"
       rx="0.74031091"
       ry="0.6805622"
       inkscape:transform-center-x="1.0551653"
       inkscape:transform-center-y="-0.62474676" />
    <ellipse
       style="fill:#800080;stroke-width:0.2;stroke-miterlimit:4;stroke-dasharray:none;stroke:#000000;stroke-opacity:1"
       id="ellipse505"
       cx="15.818702"
       cy="10.121324"
       rx="0.74031091"
       ry="0.6805622"
       inkscape:transform-center-x="1.0551653"
       inkscape:transform-center-y="-0.62474676" />
    <ellipse
       style="fill:#800080;stroke-width:0.2;stroke-miterlimit:4;stroke-dasharray:none;stroke:#000000;stroke-opacity:1"
       id="ellipse7284"
       cx="14.392092"
       cy="11.323535"
       rx="0.74031091"
       ry="0.6805622"
       inkscape:transform-center-x="1.0551653"
       inkscape:transform-center-y="-0.62474676" />
    <ellipse
       style="fill:#800080;stroke-width:0.2;stroke-miterlimit:4;stroke-dasharray:none;stroke:#000000;stroke-opacity:1"
       id="ellipse7286"
       cx="12.621079"
       cy="13.928975"
       rx="0.74031091"
       ry="0.6805622"
       inkscape:transform-center-x="1.0551653"
       inkscape:transform-center-y="-0.62474676" />
    <ellipse
       style="fill:#800080;stroke-width:0.2;stroke-miterlimit:4;stroke-dasharray:none;stroke:#000000;stroke-opacity:1"
       id="ellipse7288"
       cx="13.585011"
       cy="12.784217"
       rx="0.74031091"
       ry="0.6805622"
       inkscape:transform-center-x="1.0551653"
       inkscape:transform-center-y="-0.62474676" />
    <ellipse
       style="fill:#800080;stroke-width:0.2;stroke-miterlimit:4;stroke-dasharray:none;stroke:#000000;stroke-opacity:1"
       id="ellipse7290"
       cx="11.818301"
       cy="12.619414"
       rx="0.74031091"
       ry="0.6805622"
       inkscape:transform-center-x="1.0551653"
       inkscape:transform-center-y="-0.62474676" />
    <ellipse
       style="fill:#800080;stroke-width:0.2;stroke-miterlimit:4;stroke-dasharray:none;stroke:#000000;stroke-opacity:1"
       id="ellipse7292"
       cx="9.3976097"
       cy="14.308555"
       rx="0.74031091"
       ry="0.6805622"
       inkscape:transform-center-x="1.0551653"
       inkscape:transform-center-y="-0.62474676" />
    <ellipse
       style="fill:#800080;stroke-width:0.2;stroke-miterlimit:4;stroke-dasharray:none;stroke:#000000;stroke-opacity:1"
       id="ellipse7294"
       cx="10.913183"
       cy="15.037769"
       rx="0.74031091"
       ry="0.6805622"
       inkscape:transform-center-x="1.0551653"
       inkscape:transform-center-y="-0.62474676" />
    <ellipse
       style="fill:#800080;stroke-width:0.264583"
       id="ellipse7296"
       cx="10.478102"
       cy="13.379523"
       rx="0.74031091"
       ry="0.6805622"
       inkscape:transform-center-x="1.0551653"
       inkscape:transform-center-y="-0.62474676" />
    <ellipse
       style="fill:#800080;stroke-width:0.2;stroke-miterlimit:4;stroke-dasharray:none;stroke:#000000;stroke-opacity:1"
       id="ellipse7298"
       cx="10.478102"
       cy="13.379523"
       rx="0.74031091"
       ry="0.6805622"
       inkscape:transform-center-x="1.0551653"
       inkscape:transform-center-y="-0.62474676" />
    <path
       style="fill:none;stroke:#000000;stroke-width:0.265;stroke-linecap:butt;stroke-linejoin:miter;stroke-opacity:1;stroke-miterlimit:4;stroke-dasharray:none"
       d="M 10.869242,2.3071518 10.269256,6.2385392"
       id="path25595" />
    <path
       style="fill:none;stroke:#361300;stroke-width:0.565;stroke-linecap:butt;stroke-linejoin:miter;stroke-opacity:1;stroke-miterlimit:4;stroke-dasharray:none"
       d="m 10.869242,2.3071518 -0.7257,4.3920965 -2.0578415,3.6067227"
       id="path26958" />
    <path
       style="fill:none;stroke:#361300;stroke-width:0.264583px;stroke-linecap:butt;stroke-linejoin:miter;stroke-opacity:1"
       d="m 10.372134,5.1829885 0.428728,2.4983897"
       id="path27587" />
    <path
       style="fill:none;stroke:#361300;stroke-width:0.264583px;stroke-linecap:butt;stroke-linejoin:miter;stroke-opacity:1"
       d="M 10.869242,2.3071518 8.8335452,5.3994102 6.7249087,7.5629631"
       id="path30157" />
    <path
       style="fill:none;stroke:#361300;stroke-width:0.264583px;stroke-linecap:butt;stroke-linejoin:miter;stroke-opacity:1"
       d="M 8.8335452,5.3994102 8.0680699,5.3539958"
       id="path33147" />
    <path
       style="fill:none;stroke:#000000;stroke-width:0.065;stroke-linecap:butt;stroke-linejoin:miter;stroke-opacity:1;stroke-miterlimit:4;stroke-dasharray:none"
       d="m 10.372134,5.1829885 1.65898,2.7445109 0.99442,3.0719986"
       id="path36684" />
    <path
       style="fill:#007e00;fill-opacity:1;stroke:#000000;stroke-width:0.20109194;stroke-miterlimit:4;stroke-dasharray:none;stroke-opacity:1"
       id="path36758"
       sodipodi:type="arc"
       sodipodi:cx="5.2064772"
       sodipodi:cy="-9.4762268"
       sodipodi:rx="2.5198607"
       sodipodi:ry="2.4110961"
       sodipodi:start="0"
       sodipodi:end="0.96769218"
       sodipodi:arc-type="slice"
       d="M 7.7263379,-9.4762268 A 2.5198607,2.4110961 0 0 1 6.6357465,-7.4904989 L 5.2064772,-9.4762268 Z"
       transform="matrix(-0.44162814,0.89719819,-0.95230259,-0.30515534,0,0)" />
    <path
       style="fill:#007e00;fill-opacity:1;stroke:#000000;stroke-width:0.20109194;stroke-miterlimit:4;stroke-dasharray:none;stroke-opacity:1"
       id="path45495"
       sodipodi:type="arc"
       sodipodi:cx="-4.9085636"
       sodipodi:cy="-7.6571226"
       sodipodi:rx="2.5198607"
       sodipodi:ry="2.4110961"
       sodipodi:start="0"
       sodipodi:end="0.96769218"
       sodipodi:arc-type="slice"
       d="m -2.3887029,-7.6571226 a 2.5198607,2.4110961 0 0 1 -1.0905914,1.9857279 l -1.4292693,-1.9857279 z"
       transform="matrix(-0.95161561,0.30729096,-0.4436398,-0.89620518,0,0)"
       inkscape:transform-center-x="0.39168733"
       inkscape:transform-center-y="0.68501424" />
    <path
       style="fill:#007e00;fill-opacity:1;stroke:#000000;stroke-width:0.20094124;stroke-miterlimit:4;stroke-dasharray:none;stroke-opacity:1"
       id="path45497"
       sodipodi:type="arc"
       sodipodi:cx="11.775381"
       sodipodi:cy="-7.5653591"
       sodipodi:rx="3.9887612"
       sodipodi:ry="3.8260462"
       sodipodi:start="0"
       sodipodi:end="0.96769218"
       sodipodi:arc-type="slice"
       d="m 15.764142,-7.5653591 a 3.9887612,3.8260462 0 0 1 -1.726329,3.151051 l -2.262432,-3.151051 z"
       transform="matrix(0.05611409,0.99842436,-0.98143866,0.19177633,0,0)"
       inkscape:transform-center-x="-0.48962245"
       inkscape:transform-center-y="1.0214198" />
    <path
       style="fill:#007e00;fill-opacity:1;stroke:#000000;stroke-width:0.20181878;stroke-miterlimit:4;stroke-dasharray:none;stroke-opacity:1"
       id="path45499"
       sodipodi:type="arc"
       sodipodi:cx="12.703979"
       sodipodi:cy="-1.0466744"
       sodipodi:rx="2.6568732"
       sodipodi:ry="2.646462"
       sodipodi:start="0"
       sodipodi:end="0.96769218"
       sodipodi:arc-type="slice"
       d="m 15.360852,-1.0466744 a 2.6568732,2.646462 0 0 1 -1.14989,2.1795703 l -1.506983,-2.1795703 z"
       transform="matrix(0.87627391,0.48181327,-0.30791828,0.95141281,0,0)"
       inkscape:transform-center-x="-1.2055965"
       inkscape:transform-center-y="-0.074926403" />
    <path
       style="fill:#007e00;fill-opacity:1;stroke:#000000;stroke-width:0.20186621;stroke-miterlimit:4;stroke-dasharray:none;stroke-opacity:1"
       id="path45501"
       sodipodi:type="arc"
       sodipodi:cx="12.990286"
       sodipodi:cy="-6.2308664"
       sodipodi:rx="3.9304442"
       sodipodi:ry="3.2349236"
       sodipodi:start="0"
       sodipodi:end="0.96769218"
       sodipodi:arc-type="slice"
       d="m 16.92073,-6.2308664 a 3.9304442,3.2349236 0 0 1 -1.701089,2.6642148 l -2.229355,-2.6642148 z"
       transform="matrix(0.45824831,0.88882422,-0.78495468,0.61955318,0,0)"
       inkscape:transform-center-x="-1.3616982"
       inkscape:transform-center-y="0.44663685" />
    <path
       style="fill:none;stroke:#361300;stroke-width:0.264583px;stroke-linecap:butt;stroke-linejoin:miter;stroke-opacity:1"
       d="m 10.372134,5.1829885 1.412058,2.1051961"
       id="path45503" />
    <path
       style="fill:none;stroke:#361300;stroke-width:0.264583px;stroke-linecap:butt;stroke-linejoin:miter;stroke-opacity:1"
       d="m 11.784192,7.2881846 0.70586,2.4346497"
       id="path45505" />
    <path
       style="fill:#007e00;fill-opacity:1;stroke:#000000;stroke-width:0.21275463;stroke-miterlimit:4;stroke-dasharray:none;stroke-opacity:1"
       id="path45507"
       sodipodi:type="arc"
       sodipodi:cx="16.113689"
       sodipodi:cy="-0.63070589"
       sodipodi:rx="1.5412858"
       sodipodi:ry="1.9888011"
       sodipodi:start="0"
       sodipodi:end="0.96769218"
       sodipodi:arc-type="slice"
       d="M 17.654975,-0.63070589 A 1.5412858,1.9888011 0 0 1 16.987909,1.0072288 l -0.87422,-1.63793469 z"
       transform="matrix(0.76697731,0.64167422,-0.20804858,0.97811849,0,0)"
       inkscape:transform-center-x="-0.61214859"
       inkscape:transform-center-y="-0.057887395" />
  </g>
</svg>
